<?xml version="1.0" encoding="utf-8"?>
<!-- Generator: Adobe Illustrator 23.0.2, SVG Export Plug-In . SVG Version: 6.00 Build 0)  -->
<svg version="1.1" id="Capa_1" xmlns="http://www.w3.org/2000/svg" xmlns:xlink="http://www.w3.org/1999/xlink" x="0px" y="0px"
	 viewBox="0 0 200 200" style="enable-background:new 0 0 200 200;" xml:space="preserve">
<style type="text/css">
	.st0{fill:#FFFFFF;stroke:#343434;stroke-width:3;stroke-linecap:round;}
	.st1{fill-rule:evenodd;clip-rule:evenodd;fill:#FFC244;}
	.st2{fill:none;stroke:#343434;stroke-width:3;stroke-linecap:round;}
	.st3{display:none;}
</style>
<g id="icons">
	<g>
		<path class="st0" d="M89.5,170.8v-5.7c0-3,2.5-5.2,5.5-5.2H115c3,0,5.5,2.2,5.5,5.2v5.7c0,3-2.5,5.2-5.5,5.2H95
			C92,175.8,89.5,173.5,89.5,170.8"/>
		<path class="st0" d="M160.8,71.6c-2.5,0-5-1.2-6.5-3.5c-11.5-16.4-29.4-26.2-48.8-26.4s-38.4,9.2-50.3,25.9
			c-2.7,3.7-7.7,4.5-11.2,1.7c-3.5-2.7-4.2-8-1.5-11.7c15-20.9,38.6-33.1,63.3-32.6c24.7,0.5,47.1,12.7,61.5,33.4
			c2.7,3.7,1.7,9-1.7,11.7C164.3,71.1,162.5,71.6,160.8,71.6"/>
		<path class="st0" d="M170.3,150.1h-16.9c-3,0-5.5-2.5-5.5-5.5V97.8c0-3,2.5-5.5,5.5-5.5h16.9c3,0,5.5,2.5,5.5,5.5v46.8
			C175.8,147.6,173.3,150.1,170.3,150.1 M37.2,150.1c-3,0-5.5-2.5-5.5-5.5V97.8c0-3,2.5-5.5,5.5-5.5h16.9c3,0,5.5,2.5,5.5,5.5v46.8
			c0,3-2.5,5.5-5.5,5.5L37.2,150.1L37.2,150.1z"/>
		<path class="st1" d="M84.6,175.8V170c0-3,2.5-5.2,5.5-5.2H110c3,0,5.5,2.2,5.5,5.2v5.7c0,3-2.5,5.2-5.5,5.2H90
			C87,180.8,84.6,178.5,84.6,175.8"/>
		<path class="st1" d="M155.8,76.6c-2.5,0-5-1.2-6.5-3.5c-11.5-16.4-29.4-26.2-48.8-26.4s-38.4,9.2-50.3,25.9
			c-2.7,3.7-7.7,4.5-11.2,1.7c-3.5-2.7-4.2-8-1.5-11.7c15-20.9,38.6-33.1,63.3-32.6s47.1,12.7,61.5,33.4c2.7,3.7,1.7,9-1.7,11.7
			C159.3,76.1,157.6,76.6,155.8,76.6"/>
		<path class="st1" d="M162.8,157.6h-16.9c-3,0-5.5-2.5-5.5-5.5v-46.8c0-3,2.5-5.5,5.5-5.5h16.9c3,0,5.5,2.5,5.5,5.5v46.8
			C168.3,155.1,165.8,157.6,162.8,157.6 M29.7,157.6c-3,0-5.5-2.5-5.5-5.5v-46.8c0-3,2.5-5.5,5.5-5.5h16.9c3,0,5.5,2.5,5.5,5.5v46.8
			c0,3-2.5,5.5-5.5,5.5H29.7z"/>
		<path class="st2" d="M172.3,149.6c-2.7,9.5-11.2,16.4-21.4,16.4h-29.7"/>
		<path class="st2" d="M164.5,70.9c3.5,6.5,6.2,14,7.5,21.4"/>
		<path class="st2" d="M35,92.8c1.5-8.5,4.7-16.2,8.7-23.4"/>
		<path class="st2" d="M89.5,170.8v-5.7c0-3,2.5-5.2,5.5-5.2H115c3,0,5.5,2.2,5.5,5.2v5.7c0,3-2.5,5.2-5.5,5.2H95
			C92,175.8,89.5,173.5,89.5,170.8"/>
		<path class="st2" d="M160.8,71.6c-2.5,0-5-1.2-6.5-3.5c-11.5-16.4-29.4-26.2-48.8-26.4s-38.4,9.2-50.3,25.9
			c-2.7,3.7-7.7,4.5-11.2,1.7c-3.5-2.7-4.2-8-1.5-11.7c15-20.9,38.6-33.1,63.3-32.6c24.7,0.5,47.1,12.7,61.5,33.4
			c2.7,3.7,1.7,9-1.7,11.7C164.3,71.1,162.5,71.6,160.8,71.6"/>
		<path class="st2" d="M170.3,150.1h-16.9c-3,0-5.5-2.5-5.5-5.5V97.8c0-3,2.5-5.5,5.5-5.5h16.9c3,0,5.5,2.5,5.5,5.5v46.8
			C175.8,147.6,173.3,150.1,170.3,150.1 M37.2,150.1c-3,0-5.5-2.5-5.5-5.5V97.8c0-3,2.5-5.5,5.5-5.5h16.9c3,0,5.5,2.5,5.5,5.5v46.8
			c0,3-2.5,5.5-5.5,5.5L37.2,150.1L37.2,150.1z"/>
	</g>
</g>
<g id="city" class="st3">
</g>
</svg>
