<?xml version="1.0" encoding="utf-8"?>
<!-- Generator: Adobe Illustrator 23.0.2, SVG Export Plug-In . SVG Version: 6.00 Build 0)  -->
<svg version="1.1" xmlns="http://www.w3.org/2000/svg" xmlns:xlink="http://www.w3.org/1999/xlink" x="0px" y="0px"
	 viewBox="0 0 200 200" enable-background="new 0 0 200 200" xml:space="preserve">
<g id="icons">
	<g>
		
			<path fill="#FFFFFF" stroke="#323233" stroke-width="2.5" stroke-linecap="round" stroke-linejoin="round" stroke-miterlimit="10" d="
			M118.802,162.728c0-16.449,13.385-29.834,29.836-29.834c16.449,0,29.833,13.385,29.833,29.834
			c0,16.451-13.384,29.834-29.833,29.834C132.187,192.563,118.802,179.181,118.802,162.728z"/>
		
			<path fill="#FFFFFF" stroke="#323233" stroke-width="2.5" stroke-linecap="round" stroke-linejoin="round" stroke-miterlimit="10" d="
			M22.029,162.728c0-16.449,13.385-29.834,29.834-29.834c16.453,0,29.834,13.385,29.834,29.834
			c0,16.451-13.382,29.834-29.834,29.834C35.415,192.563,22.029,179.181,22.029,162.728z"/>
		<polygon fill="#FFFFFF" stroke="#323233" stroke-width="2.5" stroke-miterlimit="10" points="107.311,162.602 119.199,163.807 
			129.88,95.333 116.407,93.335 		"/>
		<path fill="#FFC244" d="M18.484,164.684c0-15.612,12.704-28.316,28.316-28.316c15.616,0,28.317,12.704,28.317,28.316
			c0,15.614-12.701,28.316-28.317,28.316C31.189,193,18.484,180.299,18.484,164.684z"/>
		<path fill="#FFC244" d="M116.728,164.684c0-15.612,12.704-28.316,28.316-28.316c15.616,0,28.317,12.704,28.317,28.316
			c0,15.614-12.701,28.316-28.317,28.316C129.432,193,116.728,180.299,116.728,164.684z"/>
		<path fill="#FFFFFF" stroke="#323233" stroke-width="2.5" stroke-miterlimit="10" d="M128.079,121.563
			c0,1.42,1.15,2.572,2.573,2.572c1.42,0,2.573-1.152,2.573-2.572v-4.669c0-1.421-1.152-2.573-2.573-2.573
			c-1.422,0-2.573,1.152-2.573,2.573V121.563z"/>
		
			<path fill="#FFFFFF" stroke="#323233" stroke-width="2.5" stroke-linecap="round" stroke-linejoin="round" stroke-miterlimit="10" d="
			M128.079,121.563c0,1.42,1.15,2.572,2.573,2.572c1.42,0,2.573-1.152,2.573-2.572v-4.669c0-1.421-1.152-2.573-2.573-2.573
			c-1.422,0-2.573,1.152-2.573,2.573V121.563z"/>
		<path fill="#FFFFFF" stroke="#323233" stroke-width="2.5" stroke-miterlimit="10" d="M70.497,127.373l0.971-2.333h35.531h21.08
			l-19.965,39.427L107,163.159L70.497,127.373z M112.335,165.554l18.801-36.717l15.619,32.319L112.335,165.554z M50.784,161.363
			c1.067,0.591,2.41,0.204,3.002-0.86l14.809-28.56l38.406,38.016c0.424,0.48,1.011,0.724,1.605,0.738
			c0.065,0.003,0.13-0.002,0.197-0.004c0.183,0.01,0.372,0.004,0.56-0.037l40.774-5.679c1.08-0.23,1.797-1.211,1.737-2.282
			c0.007-0.342-0.056-0.69-0.217-1.019l-18.243-39.209c-0.015-0.027-0.033-0.047-0.045-0.071c-0.201-1.012-1.093-1.775-2.164-1.775
			H107H73.308l2.234-5.366c0.591-1.066,0.207-2.41-0.859-3c-1.067-0.59-2.41-0.206-3.002,0.861l-21.757,45.246
			C49.331,159.427,49.717,160.772,50.784,161.363z"/>
		<path fill="#FFFFFF" stroke="#323233" stroke-width="2.5" stroke-miterlimit="10" d="M118.923,113.494
			c0,2.139,1.734,3.872,3.872,3.872h17.839c2.138,0,3.872-1.733,3.872-3.872c0-2.138-1.734-3.873-3.872-3.873h-17.839
			C120.657,109.621,118.923,111.356,118.923,113.494z"/>
		
			<path fill="#FFFFFF" stroke="#323233" stroke-width="2.5" stroke-linecap="round" stroke-linejoin="round" stroke-miterlimit="10" d="
			M118.923,113.494c0,2.139,1.734,3.872,3.872,3.872h17.839c2.138,0,3.872-1.733,3.872-3.872c0-2.138-1.734-3.873-3.872-3.873
			h-17.839C120.657,109.621,118.923,111.356,118.923,113.494z"/>
		<path fill="#FFFFFF" stroke="#323233" stroke-width="2.5" stroke-miterlimit="10" d="M107,159.063
			c0.706-0.171,1.44-0.27,2.199-0.27c5.182,0,9.379,4.197,9.379,9.378c0,5.179-4.198,9.377-9.379,9.377
			c-0.759,0-1.493-0.098-2.199-0.271c-4.118-0.992-7.178-4.687-7.178-9.107C99.821,163.75,102.882,160.054,107,159.063z"/>
		<path fill="#FFFFFF" stroke="#323233" stroke-width="2.5" stroke-miterlimit="10" d="M142.445,161.977
			c0,3.42,2.772,6.194,6.193,6.194c3.419,0,6.193-2.774,6.193-6.194s-2.774-6.193-6.193-6.193
			C145.217,155.784,142.445,158.557,142.445,161.977z"/>
		<path fill="#FFFFFF" stroke="#323233" stroke-width="2.5" stroke-miterlimit="10" d="M46.187,161.977
			c0,3.42,2.77,6.194,6.191,6.194c3.42,0,6.194-2.774,6.194-6.194s-2.774-6.193-6.194-6.193
			C48.958,155.784,46.187,158.557,46.187,161.977z"/>
		<path fill="#FFFFFF" stroke="#323233" stroke-width="2.5" stroke-miterlimit="10" d="M116.987,161.977h12.891
			c1.275,0,2.319-1.043,2.319-2.319c0-1.275-1.043-2.319-2.319-2.319h-12.891c-1.275,0-2.319,1.043-2.319,2.319
			C114.669,160.934,115.712,161.977,116.987,161.977z"/>
		
			<path fill="none" stroke="#323233" stroke-width="2.5" stroke-linecap="round" stroke-linejoin="round" stroke-miterlimit="10" d="
			M124.799,162.728c0,13.145,10.695,23.839,23.839,23.839c13.144,0,23.837-10.694,23.837-23.839
			c0-13.144-10.693-23.837-23.837-23.837C135.494,138.891,124.799,149.584,124.799,162.728z M118.802,162.728
			c0-16.449,13.385-29.834,29.836-29.834c16.449,0,29.833,13.385,29.833,29.834c0,16.451-13.384,29.834-29.833,29.834
			C132.187,192.563,118.802,179.181,118.802,162.728z"/>
		
			<path fill="none" stroke="#323233" stroke-width="2.5" stroke-linecap="round" stroke-linejoin="round" stroke-miterlimit="10" d="
			M28.026,162.728c0,13.145,10.693,23.839,23.837,23.839c13.146,0,23.841-10.694,23.841-23.839
			c0-13.144-10.695-23.837-23.841-23.837C38.72,138.891,28.026,149.584,28.026,162.728z M22.029,162.728
			c0-16.449,13.385-29.834,29.834-29.834c16.453,0,29.834,13.385,29.834,29.834c0,16.451-13.382,29.834-29.834,29.834
			C35.415,192.563,22.029,179.181,22.029,162.728z"/>
		
			<path fill="#FFFFFF" stroke="#323233" stroke-width="2.5" stroke-linecap="round" stroke-linejoin="round" stroke-miterlimit="10" d="
			M70.497,127.373l0.971-2.333h35.531h21.08l-19.965,39.427L107,163.159L70.497,127.373z M112.335,165.554l18.801-36.717
			l15.619,32.319L112.335,165.554z M50.784,161.363c1.067,0.591,2.41,0.204,3.002-0.86l14.81-28.56l38.406,38.016
			c0.424,0.48,1.011,0.724,1.605,0.738c0.065,0.003,0.13-0.002,0.197-0.004c0.183,0.01,0.372,0.004,0.56-0.037l40.774-5.679
			c1.08-0.23,1.797-1.211,1.737-2.282c0.007-0.342-0.056-0.69-0.217-1.019l-18.243-39.209c-0.015-0.027-0.033-0.047-0.046-0.071
			c-0.201-1.012-1.093-1.775-2.164-1.775H107H73.308l2.234-5.366c0.591-1.066,0.207-2.41-0.859-3
			c-1.067-0.59-2.41-0.205-3.002,0.861l-21.758,45.246C49.331,159.427,49.717,160.772,50.784,161.363z"/>
		
			<path fill="#FFFFFF" stroke="#323233" stroke-width="2.5" stroke-linecap="round" stroke-linejoin="round" stroke-miterlimit="10" d="
			M107,159.063c0.706-0.171,1.44-0.27,2.199-0.27c5.182,0,9.379,4.197,9.379,9.378c0,5.179-4.198,9.377-9.379,9.377
			c-0.759,0-1.493-0.098-2.199-0.271c-4.118-0.992-7.178-4.687-7.178-9.107C99.821,163.75,102.882,160.054,107,159.063z"/>
		
			<path fill="#FFFFFF" stroke="#323233" stroke-width="2.5" stroke-linecap="round" stroke-linejoin="round" stroke-miterlimit="10" d="
			M142.445,161.977c0,3.42,2.772,6.194,6.193,6.194c3.419,0,6.193-2.774,6.193-6.194c0-3.42-2.774-6.193-6.193-6.193
			C145.217,155.784,142.445,158.557,142.445,161.977z"/>
		
			<path fill="#FFFFFF" stroke="#323233" stroke-width="2.5" stroke-linecap="round" stroke-linejoin="round" stroke-miterlimit="10" d="
			M46.187,161.977c0,3.42,2.77,6.194,6.191,6.194c3.42,0,6.194-2.774,6.194-6.194c0-3.42-2.774-6.193-6.194-6.193
			C48.958,155.784,46.187,158.557,46.187,161.977z"/>
		
			<path fill="#FFFFFF" stroke="#323233" stroke-width="2.5" stroke-linecap="round" stroke-linejoin="round" stroke-miterlimit="10" d="
			M116.988,161.977h12.891c1.275,0,2.319-1.043,2.319-2.319s-1.043-2.319-2.319-2.319h-12.891c-1.275,0-2.319,1.043-2.319,2.319
			S115.712,161.977,116.988,161.977z"/>
		<path fill="#FFFFFF" stroke="#323233" stroke-width="2.5" stroke-miterlimit="10" d="M62.738,110.133c1,0,1.812,0.813,1.812,1.814
			c0,0.997-0.811,1.811-1.812,1.811c-3.308,0-5.999,2.69-5.999,5.997c0,1.001-0.813,1.813-1.814,1.813c-1,0-1.812-0.811-1.812-1.813
			C53.114,114.451,57.431,110.133,62.738,110.133z"/>
		<path fill="#FFFFFF" stroke="#323233" stroke-width="2.5" stroke-miterlimit="10" d="M60.878,111.965
			c0,1.3,1.056,2.357,2.357,2.357h13.109c1.302,0,2.359-1.056,2.359-2.357c0-1.302-1.056-2.358-2.359-2.358H63.234
			C61.934,109.607,60.878,110.663,60.878,111.965z"/>
		<path fill="#FFFFFF" stroke="#323233" stroke-width="2.5" stroke-miterlimit="10" d="M64.427,108.921
			c0.562,0,1.133-0.109,1.684-0.34l23.826-10.613c1.182-0.496,2.085-1.486,2.47-2.709l10.121-32.108
			c0.723-2.295-0.551-4.742-2.846-5.466c-2.292-0.727-4.742,0.55-5.466,2.846l-9.514,30.181l-21.963,9.831
			c-2.22,0.932-3.264,3.485-2.333,5.704C61.107,107.917,62.724,108.921,64.427,108.921z"/>
		<path fill="#FFFFFF" stroke="#323233" stroke-width="2.5" stroke-miterlimit="10" d="M90.493,60.266
			c1.271-3.47,5.15-5.268,8.62-3.997l2.056,0.753c3.47,1.271,5.268,5.15,3.997,8.62l-4.662,12.721l-14.673-5.377L90.493,60.266z"/>
		<path fill="#FFFFFF" stroke="#323233" stroke-width="2.5" stroke-miterlimit="10" d="M98.811,122.1l19.178-31.87
			c2.482-4.677,8.286-6.455,12.963-3.973l9.73,6.426c1.776,0.943,2.458,3.167,1.515,4.944c0,0-8.672,14.567-30.086,27.646
			l16.441,19.903l-5.342,8.141l-22.516-22.436C97.749,128.976,96.906,125.045,98.811,122.1z"/>
		<path fill="#FFFFFF" stroke="#323233" stroke-width="2.5" stroke-miterlimit="10" d="M96.206,53.744
			c0.992-1.582,3.37-3.49,4.756-4.645c2.168-1.809,4.258-2.025,6.912,0.15c12.198,9.997,15.252,11.384,24.602,18.634
			c12.898,10.481,14.356,22.127,11.925,30.791l-25.725-7.999c-5.783-4.521-12.887-12.971-20.318-20.899
			C91.775,62.752,92.12,60.263,96.206,53.744z"/>
		<path fill="#FFFFFF" stroke="#323233" stroke-width="2.5" stroke-miterlimit="10" d="M116.112,50.43
			c1.477,1.423,1.521,3.775,0.097,5.252c-9.667,10.032-10.006,18.029-8.583,22.986l-7.872-7.585c0.8-6.073,3.921-13.1,11.106-20.556
			C112.284,49.05,114.635,49.007,116.112,50.43z"/>
		<path fill="#FFFFFF" stroke="#323233" stroke-width="2.5" stroke-miterlimit="10" d="M113.403,77.531
			c8.61,3.049,18.377-2.416,18.486-2.477c1.776-1.018,4.041-0.406,5.064,1.369c1.026,1.78,0.415,4.048-1.363,5.073
			c-0.498,0.287-11.946,6.765-23.42,3.437l-4.241-10.848C109.558,75.66,111.384,76.816,113.403,77.531z"/>
		<path fill="#FFFFFF" stroke="#323233" stroke-width="2.5" stroke-miterlimit="10" d="M179.297,45.204l-31.03-31.737
			c-1.882-1.926-4.97-1.96-6.896-0.078l-31.737,31.03c-1.926,1.882-1.96,4.97-0.078,6.896l31.03,31.737
			c1.882,1.926,4.97,1.96,6.896,0.078l31.737-31.031C181.145,50.216,181.18,47.129,179.297,45.204z"/>
		<path fill="#FFFFFF" stroke="#323233" stroke-width="2.5" stroke-miterlimit="10" d="M59.506,112.66h2.864
			c2.47,0,4.492-2.021,4.492-4.492v-2.864c0-2.47-2.021-4.492-4.492-4.492h-2.864c-2.47,0-4.492,2.021-4.492,4.492v2.864
			C55.015,110.639,57.036,112.66,59.506,112.66z"/>
		<path fill="#FFFFFF" stroke="#323233" stroke-width="2.5" stroke-miterlimit="10" d="M74.297,112.643
			c0.562,0,1.133-0.109,1.684-0.34l23.826-10.613c1.182-0.496,2.085-1.486,2.47-2.709l7.633-26.199
			c0.723-2.295-0.551-4.742-2.846-5.466c-2.292-0.727-4.742,0.55-5.466,2.846l-7.026,24.272l-21.963,9.831
			c-2.22,0.932-3.264,3.485-2.333,5.704C70.976,111.638,72.593,112.643,74.297,112.643z"/>
		<path fill="#FFFFFF" stroke="#323233" stroke-width="2.5" stroke-miterlimit="10" d="M113.255,158.697L113.255,158.697
			c0.443,1.15,1.746,1.728,2.896,1.285l14.885-5.733c1.444-0.556,2.171-2.193,1.615-3.638l-0.809-2.1
			c-0.888-2.305-3.5-3.465-5.806-2.577l-8.584,3.306C113.697,150.687,111.809,154.943,113.255,158.697z"/>
		<path fill="#FFFFFF" stroke="#323233" stroke-width="2.5" stroke-miterlimit="10" d="M88.743,62.771h4.413
			c7.446,0,13.538-6.092,13.538-13.538V34.058c0-7.446-6.092-13.538-13.538-13.538h-4.413c-7.446,0-13.538,6.092-13.538,13.538
			v15.175C75.205,56.679,81.297,62.771,88.743,62.771z"/>
		<path fill="#FFFFFF" stroke="#323233" stroke-width="2.5" stroke-miterlimit="10" d="M100.659,43.643L100.659,43.643
			c1.117,0,2.03-0.914,2.03-2.03v-4.614c0-1.117-0.914-2.03-2.03-2.03c-1.117,0-2.03,0.914-2.03,2.03v4.614
			C98.628,42.73,99.542,43.643,100.659,43.643z"/>
		<path fill="#FFFFFF" stroke="#323233" stroke-width="2.5" stroke-miterlimit="10" d="M89.209,16.584h3.481
			c9.437,0,17.157,7.721,17.157,17.157v0.87c0,1.027-0.833,1.86-1.86,1.86H73.911c-1.027,0-1.86-0.833-1.86-1.86v-0.87
			C72.051,24.305,79.772,16.584,89.209,16.584z"/>
		<path fill="#FFFFFF" stroke="#323233" stroke-width="2.5" stroke-miterlimit="10" d="M82.588,18.141l5.303-1.378
			c-0.09,0.389-0.286,0.748-0.592,1.004c-2.291,1.916-3.452,4.496-3.452,7.671c0,1.006-0.709,1.822-1.585,1.822
			c-0.875,0-1.585-0.816-1.585-1.822C80.678,22.706,81.331,20.242,82.588,18.141z"/>
		<path fill="#FFFFFF" stroke="#323233" stroke-width="2.5" stroke-miterlimit="10" d="M98.852,17.852l2.906,1.609
			c-1.909,1.612-2.886,3.695-2.886,6.214c0,0.875-0.709,1.585-1.585,1.585c-0.875,0-1.585-0.709-1.585-1.585
			C95.703,22.62,96.796,19.959,98.852,17.852z"/>
		<path fill="#FFFFFF" stroke="#323233" stroke-width="2.5" stroke-miterlimit="10" d="M105.363,46.157
			c2.623,0,4.749-2.126,4.749-4.749c0-2.623-2.126-4.749-4.749-4.749"/>
		<path fill="#FFFFFF" stroke="#323233" stroke-width="2.5" stroke-miterlimit="10" d="M79.137,45.714
			c0,0.514,0.417,0.931,0.931,0.931c0.514,0,0.931-0.417,0.931-0.931c0-0.514-0.417-0.931-0.931-0.931
			C79.554,44.783,79.137,45.199,79.137,45.714z"/>
		<path fill="#FFFFFF" stroke="#323233" stroke-width="2.5" stroke-miterlimit="10" d="M91.137,45.714
			c0,0.514,0.417,0.931,0.931,0.931c0.514,0,0.931-0.417,0.931-0.931c0-0.514-0.417-0.931-0.931-0.931
			C91.554,44.783,91.137,45.199,91.137,45.714z"/>
		
			<path fill="#FFFFFF" stroke="#323233" stroke-width="2.5" stroke-linecap="round" stroke-linejoin="round" stroke-miterlimit="10" d="
			M93,54c-0.771,0.649-1.872,1.164-3.169,1.474C88.962,55.683,88.006,55.8,87,55.8s-1.962-0.117-2.831-0.325
			C82.872,55.164,81.771,54.649,81,54"/>
		<path fill="#FFC244" d="M178.297,49.204l-31.03-31.737c-1.882-1.926-4.97-1.96-6.896-0.078l-31.737,31.03
			c-1.926,1.882-1.96,4.97-0.078,6.896l31.03,31.737c1.882,1.926,4.97,1.96,6.896,0.078l31.737-31.031
			C180.145,54.216,180.18,51.129,178.297,49.204z"/>
		<path fill="none" stroke="#323233" stroke-width="2.5" stroke-miterlimit="10" d="M115.5,56.5
			c-9.667,10.032-9.297,17.211-7.874,22.168l-7.872-7.585c0.8-6.073,3.561-12.127,10.746-19.583"/>
		<path fill="none" stroke="#323233" stroke-width="2.5" stroke-miterlimit="10" d="M137.5,80.5
			c-0.498,0.287-13.856,7.759-25.33,4.432l-4.241-10.848c1.629,1.577,3.455,2.732,5.474,3.447c8.61,3.049,18.377-2.416,18.486-2.477
			"/>
		<path fill="none" stroke="#323233" stroke-width="2.5" stroke-miterlimit="10" d="M179.297,45.204l-31.03-31.737
			c-1.882-1.926-4.97-1.96-6.896-0.078l-31.737,31.03c-1.926,1.882-1.96,4.97-0.078,6.896l31.03,31.737
			c1.882,1.926,4.97,1.96,6.896,0.078l31.737-31.031C181.145,50.216,181.18,47.129,179.297,45.204z"/>
		<path fill="#FFFFFF" stroke="#323233" stroke-width="2.5" stroke-miterlimit="10" d="M100.153,66.998
			c1.271-3.47,5.15-5.268,8.62-3.997l2.056,0.753c3.47,1.271,5.268,5.15,3.997,8.62l-4.662,12.721L95.491,79.72L100.153,66.998z"/>
		<path fill="#FFFFFF" d="M143.993,41.874l1.396,7.674l-7.7-1.216c-1.17-0.177-2.229-0.701-3.059-1.513
			c-1.063-1.038-1.656-2.428-1.674-3.917c-0.016-1.488,0.544-2.893,1.581-3.954c0.158-0.162,0.324-0.311,0.495-0.449
			c2.192-1.765,5.364-1.611,7.378,0.356C143.241,39.667,143.788,40.712,143.993,41.874z M147.293,33.858
			c-4.544-4.439-11.695-4.785-16.637-0.807c-0.39,0.313-0.766,0.653-1.116,1.014c-2.34,2.395-3.608,5.561-3.567,8.92
			c0.039,3.357,1.38,6.493,3.774,8.832c1.883,1.84,4.265,3.022,6.892,3.421l11.19,1.768c0.061,0.015,1.479,0.325,2.766-0.712
			c0.11-0.089,0.219-0.187,0.328-0.299l1.042-1.066c1.359-1.394,0.955-3.049,0.945-3.081l-2.036-11.181
			C150.416,38.053,149.178,35.699,147.293,33.858z"/>
		<path fill="#FFFFFF" d="M152.952,57.182c-1.523,1.558-1.517,3.951,0.033,5.466c1.386,1.354,3.503,1.444,5.033,0.212
			c0.127-0.102,0.25-0.215,0.368-0.336c1.529-1.566,1.53-3.959-0.01-5.462C156.865,55.587,154.488,55.587,152.952,57.182z"/>
		
			<path fill="#FFFFFF" stroke="#323233" stroke-width="2.5" stroke-linecap="round" stroke-linejoin="round" stroke-miterlimit="10" d="
			M62.738,110.133c1,0,1.812,0.813,1.812,1.814c0,0.997-0.811,1.811-1.812,1.811c-3.309,0-5.999,2.69-5.999,5.997
			c0,1.001-0.813,1.813-1.814,1.813c-1,0-1.812-0.811-1.812-1.813C53.114,114.451,57.431,110.133,62.738,110.133z"/>
		
			<path fill="#FFFFFF" stroke="#323233" stroke-width="2.5" stroke-linecap="round" stroke-linejoin="round" stroke-miterlimit="10" d="
			M60.878,111.965c0,1.301,1.056,2.357,2.357,2.357h13.109c1.302,0,2.359-1.056,2.359-2.357c0-1.302-1.056-2.358-2.359-2.358H63.234
			C61.934,109.607,60.878,110.663,60.878,111.965z"/>
		<path fill="#FFFFFF" stroke="#323233" stroke-width="2.5" stroke-miterlimit="10" d="M69.483,115.435h2.864
			c2.47,0,4.492-2.021,4.492-4.492v-2.864c0-2.47-2.021-4.492-4.492-4.492h-2.864c-2.47,0-4.492,2.021-4.492,4.492v2.864
			C64.991,113.414,67.013,115.435,69.483,115.435z"/>
	</g>
</g>
<g id="city" display="none">
</g>
</svg>
