<?xml version="1.0" encoding="utf-8"?>
<!-- Generator: Adobe Illustrator 23.0.2, SVG Export Plug-In . SVG Version: 6.00 Build 0)  -->
<svg version="1.1" id="Capa_1" xmlns="http://www.w3.org/2000/svg" xmlns:xlink="http://www.w3.org/1999/xlink" x="0px" y="0px"
	 viewBox="0 0 200 200" style="enable-background:new 0 0 200 200;" xml:space="preserve">
<style type="text/css">
	.st0{fill:#FFFFFF;stroke:#343434;stroke-width:3;stroke-linecap:round;stroke-linejoin:round;stroke-miterlimit:10;}
	.st1{fill:#FFC244;}
	.st2{fill-rule:evenodd;clip-rule:evenodd;fill:#FFC244;}
	.st3{fill:none;stroke:#343434;stroke-width:3;stroke-linecap:round;stroke-linejoin:round;stroke-miterlimit:10;}
	.st4{display:none;}
</style>
<g id="icons">
	<g>
		<path class="st0" d="M31.2,56.6H173c1.1,0,2,0.9,2,2v111.1c0,1.1-0.9,2-2,2H31.2c-1.1,0-2-0.9-2-2V58.6
			C29.4,57.4,30.1,56.6,31.2,56.6z"/>
		<rect x="25" y="61" class="st1" width="145.6" height="22.9"/>
		<path class="st2" d="M38.1,113.4h7.6c0.4,0,0.9,0.4,0.9,0.9v7.6c0,0.4-0.4,0.9-0.9,0.9h-7.6c-0.4,0-0.9-0.4-0.9-0.9v-7.6
			C37.2,113.9,37.7,113.4,38.1,113.4z"/>
		<path class="st2" d="M57.4,113.4H65c0.4,0,0.9,0.4,0.9,0.9v7.6c0,0.4-0.4,0.9-0.9,0.9h-7.6c-0.4,0-0.9-0.4-0.9-0.9v-7.6
			C56.6,113.9,56.8,113.4,57.4,113.4z"/>
		<path class="st2" d="M76.6,113.4h7.6c0.4,0,0.9,0.4,0.9,0.9v7.6c0,0.4-0.4,0.9-0.9,0.9h-7.6c-0.4,0-0.9-0.4-0.9-0.9v-7.6
			C75.7,113.9,76.1,113.4,76.6,113.4z"/>
		<path class="st2" d="M95.9,113.4h7.6c0.4,0,0.9,0.4,0.9,0.9v7.6c0,0.4-0.4,0.9-0.9,0.9h-7.6c-0.4,0-0.9-0.4-0.9-0.9v-7.6
			C95,113.9,95.4,113.4,95.9,113.4z"/>
		<path class="st2" d="M115.2,113.4h7.6c0.4,0,0.9,0.4,0.9,0.9v7.6c0,0.4-0.4,0.9-0.9,0.9h-7.6c-0.4,0-0.9-0.4-0.9-0.9v-7.6
			C114.1,113.9,114.6,113.4,115.2,113.4z"/>
		<path class="st2" d="M134.3,113.4h7.6c0.4,0,0.9,0.4,0.9,0.9v7.6c0,0.4-0.4,0.9-0.9,0.9h-7.6c-0.4,0-0.9-0.4-0.9-0.9v-7.6
			C133.4,113.9,133.9,113.4,134.3,113.4z"/>
		<path class="st2" d="M153.7,113.4h7.6c0.4,0,0.9,0.4,0.9,0.9v7.6c0,0.4-0.4,0.9-0.9,0.9h-7.6c-0.4,0-0.9-0.4-0.9-0.9v-7.6
			C152.8,113.9,153.2,113.4,153.7,113.4z"/>
		<path class="st3" d="M31.2,56.6H173c1.1,0,2,0.9,2,2v111.1c0,1.1-0.9,2-2,2H31.2c-1.1,0-2-0.9-2-2V58.6
			C29.4,57.4,30.1,56.6,31.2,56.6z"/>
		<path class="st3" d="M31.2,56.6H173c1.1,0,2,0.9,2,2v20.9H29.4V58.6C29.4,57.4,30.1,56.6,31.2,56.6z"/>
		<path class="st3" d="M40.8,111.2h7.6c0.4,0,0.9,0.4,0.9,0.9v7.6c0,0.4-0.4,0.9-0.9,0.9h-7.6c-0.4,0-0.9-0.4-0.9-0.9v-7.6
			C39.7,111.7,40.1,111.2,40.8,111.2z"/>
		<path class="st3" d="M40.8,131h7.6c0.4,0,0.9,0.4,0.9,0.9v7.6c0,0.4-0.4,0.9-0.9,0.9h-7.6c-0.4,0-0.9-0.4-0.9-0.9v-7.6
			C39.7,131.4,40.1,131,40.8,131z"/>
		<path class="st3" d="M40.8,150.8h7.6c0.4,0,0.9,0.4,0.9,0.9v7.6c0,0.4-0.4,0.9-0.9,0.9h-7.6c-0.4,0-0.9-0.4-0.9-0.9v-7.6
			C39.7,151.2,40.1,150.8,40.8,150.8z"/>
		<path class="st3" d="M59.9,111.2h7.6c0.4,0,0.9,0.4,0.9,0.9v7.6c0,0.4-0.4,0.9-0.9,0.9h-7.6c-0.4,0-0.9-0.4-0.9-0.9v-7.6
			C59,111.7,59.4,111.2,59.9,111.2z"/>
		<path class="st3" d="M59.9,131h7.6c0.4,0,0.9,0.4,0.9,0.9v7.6c0,0.4-0.4,0.9-0.9,0.9h-7.6c-0.4,0-0.9-0.4-0.9-0.9v-7.6
			C59,131.4,59.4,131,59.9,131z"/>
		<path class="st3" d="M59.9,150.8h7.6c0.4,0,0.9,0.4,0.9,0.9v7.6c0,0.4-0.4,0.9-0.9,0.9h-7.6c-0.4,0-0.9-0.4-0.9-0.9v-7.6
			C59,151.2,59.4,150.8,59.9,150.8z"/>
		<path class="st3" d="M79.2,111.2h7.6c0.4,0,0.9,0.4,0.9,0.9v7.6c0,0.4-0.4,0.9-0.9,0.9h-7.6c-0.4,0-0.9-0.4-0.9-0.9v-7.6
			C78.3,111.7,78.8,111.2,79.2,111.2z"/>
		<path class="st3" d="M79.2,131h7.6c0.4,0,0.9,0.4,0.9,0.9v7.6c0,0.4-0.4,0.9-0.9,0.9h-7.6c-0.4,0-0.9-0.4-0.9-0.9v-7.6
			C78.3,131.4,78.8,131,79.2,131z"/>
		<path class="st3" d="M98.3,111.2h7.6c0.4,0,0.9,0.4,0.9,0.9v7.6c0,0.4-0.4,0.9-0.9,0.9h-7.6c-0.4,0-0.9-0.4-0.9-0.9v-7.6
			C97.4,111.7,97.9,111.2,98.3,111.2z"/>
		<path class="st3" d="M98.3,131h7.6c0.4,0,0.9,0.4,0.9,0.9v7.6c0,0.4-0.4,0.9-0.9,0.9h-7.6c-0.4,0-0.9-0.4-0.9-0.9v-7.6
			C97.4,131.4,97.9,131,98.3,131z"/>
		<path class="st3" d="M117.7,111.2h7.6c0.4,0,0.9,0.4,0.9,0.9v7.6c0,0.4-0.4,0.9-0.9,0.9h-7.6c-0.4,0-0.9-0.4-0.9-0.9v-7.6
			C116.8,111.7,117.2,111.2,117.7,111.2z"/>
		<path class="st3" d="M117.7,131h7.6c0.4,0,0.9,0.4,0.9,0.9v7.6c0,0.4-0.4,0.9-0.9,0.9h-7.6c-0.4,0-0.9-0.4-0.9-0.9v-7.6
			C116.8,131.4,117.2,131,117.7,131z"/>
		<path class="st3" d="M117.7,91.9h7.6c0.4,0,0.9,0.4,0.9,0.9v7.6c0,0.7-0.4,1.1-0.9,1.1h-7.6c-0.4,0-0.9-0.4-0.9-0.9V93
			C116.8,92.3,117.2,91.9,117.7,91.9z"/>
		<path class="st3" d="M137,111.2h7.6c0.4,0,0.9,0.4,0.9,0.9v7.6c0,0.4-0.4,0.9-0.9,0.9H137c-0.4,0-0.9-0.4-0.9-0.9v-7.6
			C135.9,111.7,136.3,111.2,137,111.2z"/>
		<path class="st3" d="M137,131h7.6c0.4,0,0.9,0.4,0.9,0.9v7.6c0,0.4-0.4,0.9-0.9,0.9H137c-0.4,0-0.9-0.4-0.9-0.9v-7.6
			C135.9,131.4,136.3,131,137,131z"/>
		<path class="st3" d="M137,91.9h7.6c0.4,0,0.9,0.4,0.9,0.9v7.6c0,0.4-0.4,0.9-0.9,0.9H137c-0.4,0-0.9-0.4-0.9-0.9v-7.6
			C135.9,92.3,136.3,91.9,137,91.9z"/>
		<path class="st3" d="M156.1,111.2h7.6c0.4,0,0.9,0.4,0.9,0.9v7.6c0,0.4-0.4,0.9-0.9,0.9h-7.6c-0.4,0-0.9-0.4-0.9-0.9v-7.6
			C155.2,111.7,155.7,111.2,156.1,111.2z"/>
		<path class="st3" d="M156.1,131h7.6c0.4,0,0.9,0.4,0.9,0.9v7.6c0,0.4-0.4,0.9-0.9,0.9h-7.6c-0.4,0-0.9-0.4-0.9-0.9v-7.6
			C155.2,131.4,155.7,131,156.1,131z"/>
		<path class="st3" d="M156.1,91.9h7.6c0.4,0,0.9,0.4,0.9,0.9v7.6c0,0.4-0.4,0.9-0.9,0.9h-7.6c-0.4,0-0.9-0.4-0.9-0.9v-7.6
			C155.2,92.3,155.7,91.9,156.1,91.9z"/>
		<line class="st3" x1="42.1" y1="62.6" x2="42.1" y2="52.3"/>
		<line class="st3" x1="55.2" y1="62.6" x2="55.2" y2="52.3"/>
		<line class="st3" x1="68.1" y1="62.6" x2="68.1" y2="52.3"/>
		<line class="st3" x1="81" y1="62.6" x2="81" y2="52.3"/>
		<line class="st3" x1="93.9" y1="62.6" x2="93.9" y2="52.3"/>
		<line class="st3" x1="106.8" y1="62.6" x2="106.8" y2="52.3"/>
		<line class="st3" x1="119.7" y1="62.6" x2="119.7" y2="52.3"/>
		<line class="st3" x1="132.6" y1="62.6" x2="132.6" y2="52.3"/>
		<line class="st3" x1="145.4" y1="62.6" x2="145.4" y2="52.3"/>
		<line class="st3" x1="158.3" y1="62.6" x2="158.3" y2="52.3"/>
	</g>
</g>
<g id="city" class="st4">
</g>
</svg>
