<?xml version="1.0" encoding="utf-8"?>
<!-- Generator: Adobe Illustrator 23.0.2, SVG Export Plug-In . SVG Version: 6.00 Build 0)  -->
<svg version="1.1" id="Capa_1" xmlns="http://www.w3.org/2000/svg" xmlns:xlink="http://www.w3.org/1999/xlink" x="0px" y="0px"
	 viewBox="0 0 200 200" style="enable-background:new 0 0 200 200;" xml:space="preserve">
<style type="text/css">
	.st0{fill:#FFFFFF;stroke:#343434;stroke-width:3;stroke-linecap:round;}
	.st1{fill-rule:evenodd;clip-rule:evenodd;fill:#FFC244;}
	.st2{fill:none;stroke:#343434;stroke-width:3;stroke-linecap:round;}
	.st3{display:none;}
</style>
<g id="icons">
	<g>
		<path class="st0" d="M114.7,74l65.9,17.7c1.4-32.2-19.8-62-52.1-70.5C91,11.6,52.7,34,42.8,71.2l-24.4,78.3l2.5,0.7l39.3,11.7
			l51.4,15.6c3.5,1.8,7.1,2.5,11,3.2c1.8,0.4,3.5,0.4,5.3,0.4c14.9-0.4,28-9.6,33.3-22.3c1.1-2.5,1.8-5,2.5-7.8l5.7-13.1l-74-19.8
			c-12.8-3.5-20.2-16.7-16.7-29.1C80,84.3,82.5,80,86,77.2"/>
		<path class="st0" d="M86.7,77.2c-3.5,3.2-6.4,7.1-7.4,12c-3.2,12.8,4.3,25.5,16.7,29.1l74,19.8l9.2-31.5c1.1-5,2.1-9.9,2.5-14.9
			l-68.7-18.1"/>
		<path class="st1" d="M118.6,68.7l-19.8-8.1l-4.6-21.3c-0.7-2.5-4.3-2.5-5-0.4L81,58.8l-21.3,4.6c-1.4,0.4-2.5,1.8-2.1,3.2
			c0.4,0.7,0.7,1.4,1.4,1.8l19.8,8.1l4.6,21.3c0.4,1.4,1.8,2.5,3.2,2.1c0.7-0.4,1.4-0.7,1.8-1.4l8.1-19.8l21.3-4.6
			c1.4-0.4,2.5-1.8,2.1-3.2C120,69.8,119.3,69,118.6,68.7"/>
		<path class="st2" d="M114.7,74l65.9,17.7c1.4-32.2-19.8-62-52.1-70.5C91,11.6,52.7,34,42.8,71.2l-24.4,78.3l2.5,0.7l39.3,11.7
			l51.4,15.6c3.5,1.8,7.1,2.5,11,3.2c1.8,0.4,3.5,0.4,5.3,0.4c14.9-0.4,28-9.6,33.3-22.3c1.1-2.5,1.8-5,2.5-7.8l5.7-13.1l-74-19.8
			c-12.8-3.5-20.2-16.7-16.7-29.1C80,84.3,82.5,80,86,77.2"/>
		<path class="st2" d="M86.7,77.2c-3.5,3.2-6.4,7.1-7.4,12c-3.2,12.8,4.3,25.5,16.7,29.1l74,19.8l9.2-31.5c1.1-5,2.1-9.9,2.5-14.9
			l-68.7-18.1"/>
		<path class="st2" d="M125.7,65.1L105.8,57l-4.6-21.3c-0.7-2.5-4.3-2.5-5-0.4l-8.1,19.8l-21.3,4.6c-1.4,0.4-2.5,1.8-2.1,3.2
			c0.4,0.7,0.7,1.4,1.4,1.8L86,72.9l4.6,21.3c0.4,1.4,1.8,2.5,3.2,2.1c0.7-0.4,1.4-0.7,1.8-1.4l8.1-19.8l21.3-4.6
			c1.4-0.4,2.5-1.8,2.1-3.2C127.1,66.2,126.4,65.5,125.7,65.1"/>
	</g>
</g>
<g id="city" class="st3">
</g>
</svg>
