<?xml version="1.0" encoding="utf-8"?>
<!-- Generator: Adobe Illustrator 23.0.2, SVG Export Plug-In . SVG Version: 6.00 Build 0)  -->
<svg version="1.1" id="Capa_1" xmlns="http://www.w3.org/2000/svg" xmlns:xlink="http://www.w3.org/1999/xlink" x="0px" y="0px"
	 viewBox="0 0 200 200" style="enable-background:new 0 0 200 200;" xml:space="preserve">
<style type="text/css">
	.st0{fill:#FFFFFF;stroke:#343434;stroke-width:3;stroke-linecap:round;stroke-linejoin:round;stroke-miterlimit:10;}
	.st1{fill-rule:evenodd;clip-rule:evenodd;fill:#FFC244;}
	.st2{fill:none;stroke:#343434;stroke-width:3;stroke-linecap:round;stroke-linejoin:round;stroke-miterlimit:10;}
	.st3{display:none;}
</style>
<g id="icons">
	<g>
		<circle class="st0" cx="100" cy="101.7" r="73.3"/>
		<path class="st1" d="M94.3,25.3v70c0,1.5-1,2.6-2.6,2.6c-1,0-1.8-0.5-2.3-1.3L55.8,35C67.6,27.3,80.7,24,94.3,25.3z"/>
		<polyline class="st2" points="73.5,59.2 98.2,101.9 98.2,39.4 		"/>
		<path class="st2" d="M27.5,101.9l18.3-0.3 M172.3,101.9l-14.9-0.3 M37.7,138.7l13.9-8.5 M162,139l-14.1-8.5 M62.7,164.7l8.7-14.9
			 M139.9,163.2l-8.2-13.4 M101.5,174v-16.5 M162.3,64.4l-14.4,8.7 M37.2,64.9l14.4,8.5 M137.3,39.2l-8.7,14.4"/>
		<circle class="st2" cx="100" cy="101.7" r="73.3"/>
	</g>
</g>
<g id="city" class="st3">
</g>
</svg>
