<?xml version="1.0" encoding="utf-8"?>
<!-- Generator: Adobe Illustrator 23.0.2, SVG Export Plug-In . SVG Version: 6.00 Build 0)  -->
<svg version="1.1" id="Capa_1" xmlns="http://www.w3.org/2000/svg" xmlns:xlink="http://www.w3.org/1999/xlink" x="0px" y="0px"
	 viewBox="0 0 200 200" style="enable-background:new 0 0 200 200;" xml:space="preserve">
<style type="text/css">
	.st0{fill:#FFFFFF;stroke:#343434;stroke-width:3;stroke-linecap:round;stroke-linejoin:round;stroke-miterlimit:10;}
	.st1{fill-rule:evenodd;clip-rule:evenodd;fill:#FFC244;}
	.st2{fill:none;stroke:#343434;stroke-width:3;stroke-linecap:round;stroke-linejoin:round;stroke-miterlimit:10;}
	.st3{display:none;}
</style>
<g id="icons">
	<g>
		<path class="st0" d="M151.7,106.4l0.2-31.3H32.5v58.1c0,5,4.3,9,9.5,9h52.6"/>
		<path class="st0" d="M152,53c0-4.8-4-8.8-9-8.8H41.5c-5,0-9,4-9,8.8v22H152V53z"/>
		<path class="st0" d="M175,141.9c0,21.5-17.8,39.1-40.1,39.1s-40.3-17.5-40.3-39.1s18-39.1,40.3-39.1S175,120.4,175,141.9z"/>
		<path class="st1" d="M167.5,146.9c0,21.5-17.8,39.1-40.1,39.1s-40.3-17.5-40.3-39.1s18-39.1,40.3-39.1
			C149.7,107.9,167.5,125.4,167.5,146.9z"/>
		<path class="st1" d="M144.4,58c0-4.8-4-8.8-9-8.8H34c-5,0-9,4-9,8.8v22h119.4L144.4,58L144.4,58z"/>
		<path class="st2" d="M151.7,106.4l0.2-31.3H32.5v58.1c0,5,4.3,9,9.5,9h52.6"/>
		<path class="st2" d="M152,53c0-4.8-4-8.8-9-8.8H41.5c-5,0-9,4-9,8.8v22H152V53z"/>
		<path class="st2" d="M124.9,44.3V34 M59.3,44.3V34"/>
		<path class="st2" d="M175,141.9c0,21.5-17.8,39.1-40.1,39.1s-40.3-17.5-40.3-39.1s18-39.1,40.3-39.1S175,120.4,175,141.9z"/>
		<polyline class="st2" points="133.2,122.6 133.2,147.4 150.7,162.5 		"/>
	</g>
</g>
<g id="city" class="st3">
</g>
</svg>
