<?xml version="1.0" encoding="utf-8"?>
<!-- Generator: Adobe Illustrator 23.0.2, SVG Export Plug-In . SVG Version: 6.00 Build 0)  -->
<svg version="1.1" id="Capa_1" xmlns="http://www.w3.org/2000/svg" xmlns:xlink="http://www.w3.org/1999/xlink" x="0px" y="0px"
	 viewBox="0 0 200 200" style="enable-background:new 0 0 200 200;" xml:space="preserve">
<style type="text/css">
	.st0{fill:#FFFFFF;stroke:#343434;stroke-width:3;stroke-linecap:round;stroke-linejoin:round;stroke-miterlimit:10;}
	.st1{fill:#008378;}
	.st2{fill:none;stroke:#343434;stroke-width:3;stroke-linecap:round;stroke-linejoin:round;stroke-miterlimit:10;}
	.st3{fill:#343434;}
	.st4{fill-rule:evenodd;clip-rule:evenodd;fill:#343434;}
	.st5{fill-rule:evenodd;clip-rule:evenodd;fill:#008378;}
	.st6{display:none;}
</style>
<g id="icons">
	<g>
		<path class="st0" d="M155.9,178H44.1c-1.6,0-3-1.4-3-3V25c0-1.6,1.4-3,3-3h75.7c0.7,0,1.6,0.2,2.1,0.9L158,58.8
			c0.5,0.5,0.9,1.4,0.9,2.1V175C158.9,176.6,157.5,178,155.9,178"/>
		<path class="st1" d="M132,128.3h-18.7c-1.4,0-2.8,0.7-3.5,1.6c-0.7-1.4-2.3-2.3-4.2-2.3H52.6c-2.8,0-4.7,1.9-4.7,4.7v5.4
			c0,2.3,2.3,4.7,4.7,4.7h52.9c1.6,0,2.8-0.7,3.7-1.6c0.7,1.4,2.3,2.3,4,2.3H132c2.8,0,4.7-1.9,4.7-4.7V133
			C136.7,130.2,134.8,128.3,132,128.3z"/>
		<path class="st1" d="M132,99.8h-18.7c-1.4,0-2.8,0.5-3.5,1.6c-0.7-1.4-2.3-2.6-4.2-2.6H52.6c-2.8,0-4.7,1.9-4.7,4.7v5.4
			c0,2.6,2.1,4.7,4.7,4.7h52.9c1.4,0,2.8-0.7,3.5-1.6c0.7,1.4,2.3,2.6,4.2,2.6H132c2.8,0,4.7-1.9,4.7-4.7v-5.4
			C136.7,101.6,134.8,99.8,132,99.8z"/>
		<path class="st2" d="M155.9,178H44.1c-1.6,0-3-1.4-3-3V25c0-1.6,1.4-3,3-3h75.7c0.7,0,1.6,0.2,2.1,0.9L158,58.8
			c0.5,0.5,0.9,1.4,0.9,2.1V175C158.9,176.6,157.5,178,155.9,178"/>
		<path class="st2" d="M158.9,59.7h-31.2c-3.5,0-6.6-3-6.6-6.6V22L158.9,59.7z"/>
		<path class="st3" d="M110.2,122.3H57.3c-3,0-5.4,2.3-5.4,5.4v5.4c0,2.8,2.6,5.4,5.4,5.4h52.9c1.4,0,2.6-0.5,3.5-1.2
			c0.9,1.2,2.6,1.9,4.2,1.9h18.7c3,0,5.4-2.3,5.4-5.4v-5.4c0-3-2.3-5.4-5.4-5.4h-18.7c-1.4,0-2.6,0.5-3.5,1.2
			C113.5,123,111.8,122.3,110.2,122.3z M110.2,93.4H57.3c-3,0-5.4,2.3-5.4,5.4v5.4c0,3,2.3,5.4,5.4,5.4h52.9c1.4,0,2.6-0.5,3.5-1.2
			c0.9,1.4,2.6,2.1,4.2,2.1h18.7c3,0,5.4-2.3,5.4-5.4v-5.4c0-3-2.3-5.4-5.4-5.4h-18.7c-1.4,0-2.6,0.5-3.5,1.2
			C113.5,94.1,112.1,93.4,110.2,93.4z M136.7,126c1.4,0,2.3,0.9,2.3,2.3v5.4c0,1.4-0.9,2.3-2.3,2.3h-18.7c-1.2,0-2.3-0.9-2.3-2.3
			v-5.4c0-1.4,0.9-2.3,2.3-2.3L136.7,126 M110.2,125.3c1.4,0,2.3,0.9,2.3,2.3v5.4c0,1.4-0.9,2.3-2.3,2.3H57.3
			c-1.2,0-2.3-1.2-2.3-2.3v-5.4c0-1.4,0.9-2.3,2.3-2.3H110.2 M136.7,97.4c1.4,0,2.3,0.9,2.3,2.3v5.4c0,1.4-0.9,2.3-2.3,2.3h-18.7
			c-1.2,0-2.3-1.2-2.3-2.3v-5.4c0-1.4,0.9-2.3,2.3-2.3H136.7 M110.2,96.5c1.4,0,2.3,0.9,2.3,2.3v5.4c0,1.4-0.9,2.3-2.3,2.3H57.3
			c-1.2,0-2.3-0.9-2.3-2.3v-5.4c0-1.4,0.9-2.3,2.3-2.3H110.2"/>
		<path class="st4" d="M84,83.1H56.5c-0.9,0-1.6-0.7-1.6-1.6s0.7-1.6,1.6-1.6h27.2c0.9,0,1.6,0.7,1.9,1.6
			C85.6,82.4,84.9,83.1,84,83.1 M106.7,74H56.5c-0.9,0-1.6-0.7-1.6-1.6s0.7-1.6,1.6-1.6c0,0,0,0,0.2,0h50.1c0.9,0,1.6,0.7,1.9,1.6
			C108.6,73.3,107.8,74,106.7,74C106.9,74,106.9,74,106.7,74 M137.8,163.9h-27.2c-0.9,0-1.6-0.7-1.6-1.6s0.7-1.6,1.6-1.6h27.2
			c0.9,0,1.6,0.7,1.9,1.6C139.7,163,139,163.9,137.8,163.9 M137.8,154.6H87.7c-0.9,0-1.6-0.7-1.6-1.6s0.7-1.6,1.6-1.6h50.1
			c0.9,0,1.6,0.7,1.9,1.6C139.7,153.6,139,154.3,137.8,154.6"/>
		<path class="st5" d="M62.2,56.9L62.2,56.9c0-1.2,0.7-1.9,1.9-1.9s1.9,0.9,1.9,1.9s-0.7,1.9-1.9,1.9C63.1,58.8,62.2,57.8,62.2,56.9
			 M64,35.8c-4,0-7.3,3.3-7.3,7.3c0,1.4,0.5,3,1.4,4.2l0.2,0.2l3.7,5.2c0,0,0.5,0.7,1.4,0.7h0.9c0.5,0,1.2-0.2,1.4-0.7l3.7-5.2
			l0.2-0.2c0.9-1.2,1.4-2.6,1.4-4.2C71.3,39.1,68,35.8,64,35.8 M67.1,45.2l-0.2,0.2l-2.8,4l-2.8-3.7L61,45.4
			c-0.5-0.7-0.7-1.4-0.7-2.1c0-2.1,1.6-3.5,3.7-3.5c2.1,0,3.7,1.6,3.7,3.5C67.6,43.8,67.3,44.5,67.1,45.2"/>
	</g>
</g>
<g id="city" class="st6">
</g>
</svg>
