<?xml version="1.0" encoding="utf-8"?>
<!-- Generator: Adobe Illustrator 23.0.2, SVG Export Plug-In . SVG Version: 6.00 Build 0)  -->
<svg version="1.1" id="Capa_1" xmlns="http://www.w3.org/2000/svg" xmlns:xlink="http://www.w3.org/1999/xlink" x="0px" y="0px"
	 viewBox="0 0 200 200" style="enable-background:new 0 0 200 200;" xml:space="preserve">
<style type="text/css">
	.st0{fill:#FFFFFF;stroke:#000000;stroke-width:3;stroke-miterlimit:10;}
	.st1{fill:#FFC244;}
	.st2{fill:none;stroke:#000000;stroke-width:3;stroke-miterlimit:10;}
	.st3{display:none;}
</style>
<g id="icons">
	<g>
		<path class="st0" d="M170.6,152.8H35.2c-0.6,0-1-0.4-1-1v-87c0-1.1,0.9-2,2-2h133.5c1.1,0,2,0.9,2,2v87
			C171.6,152.4,171.2,152.8,170.6,152.8z"/>
		<path class="st0" d="M183,165.9H22.8c-1.1,0-2-0.9-2-2v-11.1H185v11.1C185,165,184.1,165.9,183,165.9z"/>
		<rect x="41.6" y="69.7" class="st0" width="122.6" height="76.2"/>
		<path class="st1" d="M177.2,169.2H17c-1.1,0-2-0.9-2-2v-11.1h164.2v11.1C179.2,168.3,178.3,169.2,177.2,169.2z"/>
		<g>
			<path class="st1" d="M58.9,72h101.8v68.9h7.4V69.7c0-2.6-2.1-4.6-4.6-4.6H58.9V72z"/>
		</g>
		<path class="st2" d="M170.6,152.8H35.2c-0.6,0-1-0.4-1-1v-87c0-1.1,0.9-2,2-2h133.5c1.1,0,2,0.9,2,2v87
			C171.6,152.4,171.2,152.8,170.6,152.8z"/>
		<path class="st2" d="M183,165.9H22.8c-1.1,0-2-0.9-2-2v-11.1H185v11.1C185,165,184.1,165.9,183,165.9z"/>
		<rect x="41.6" y="69.7" class="st2" width="122.6" height="76.2"/>
		<line class="st2" x1="116.9" y1="114.3" x2="144.2" y2="97.3"/>
		<line class="st2" x1="128.9" y1="93.9" x2="147.6" y2="82.2"/>
	</g>
</g>
<g id="city" class="st3">
</g>
</svg>
