<?xml version="1.0" encoding="utf-8"?>
<!-- Generator: Adobe Illustrator 23.0.2, SVG Export Plug-In . SVG Version: 6.00 Build 0)  -->
<svg version="1.1" id="Capa_1" xmlns="http://www.w3.org/2000/svg" xmlns:xlink="http://www.w3.org/1999/xlink" x="0px" y="0px"
	 viewBox="0 0 200 200" style="enable-background:new 0 0 200 200;" xml:space="preserve">
<style type="text/css">
	.st0{fill:#FFFFFF;stroke:#323233;stroke-width:3;stroke-miterlimit:10;}
	.st1{fill:#FFC244;}
	.st2{fill:none;stroke:#323233;stroke-width:3;stroke-miterlimit:10;}
	.st3{fill:#FFFFFF;stroke:#323233;stroke-width:3;stroke-linecap:round;stroke-linejoin:round;stroke-miterlimit:10;}
	.st4{fill:none;stroke:#323233;stroke-width:3;stroke-linecap:round;stroke-linejoin:round;stroke-miterlimit:10;}
	.st5{display:none;}
</style>
<circle class="st0" cx="103.2" cy="73.6" r="53.6"/>
<g id="icons">
	<g>
		<g>
			<g>
				<path class="st0" d="M119,118.1l-16.3,0.5c0,0-0.1,0-0.1,0l-16.3-0.5c-1,0-1.9,0.6-2.3,1.6l-16.7,46.5c-0.7,1.8,1.1,3.6,3,3
					l17-5.7c1-0.3,2.1,0,2.7,0.9l10.9,15.1c0.9,1.3,2.9,1.3,3.8,0l10.9-15.1c0.6-0.8,1.7-1.2,2.7-0.9l17,5.7c1.9,0.6,3.6-1.2,3-3
					l-16.7-46.5C120.9,118.7,120,118,119,118.1z"/>
				<path class="st1" d="M111.2,120.6l-16.3,0.5c0,0-0.1,0-0.1,0l-16.3-0.5c-1,0-1.9,0.6-2.3,1.6l-16.7,46.5c-0.7,1.8,1.1,3.6,3,3
					l17-5.7c1-0.3,2.1,0,2.7,0.9L92.9,182c0.9,1.3,2.9,1.3,3.8,0l10.9-15.1c0.6-0.8,1.7-1.2,2.7-0.9l17,5.7c1.9,0.6,3.6-1.2,3-3
					l-16.7-46.5C113.1,121.2,112.2,120.6,111.2,120.6z"/>
				<path class="st2" d="M119,118.1l-16.3,0.5c0,0-0.1,0-0.1,0l-16.3-0.5c-1,0-1.9,0.6-2.3,1.6l-16.7,46.5c-0.7,1.8,1.1,3.6,3,3
					l17-5.7c1-0.3,2.1,0,2.7,0.9l10.9,15.1c0.9,1.3,2.9,1.3,3.8,0l10.9-15.1c0.6-0.8,1.7-1.2,2.7-0.9l17,5.7c1.9,0.6,3.6-1.2,3-3
					l-16.7-46.5C120.9,118.7,120,118,119,118.1z"/>
			</g>
		</g>
		<path class="st0" d="M111.9,125.8c-0.1-0.1-0.2-0.3-0.2-0.4l-3-15.4c0-0.3,0-0.7,0.2-1c0.2-0.3,0.5-0.5,0.9-0.6
			c4.2-0.8,8.1-2.4,11.7-4.6c0.1-0.1,0.3-0.2,0.5-0.3l0.3-0.2c0.7-0.4,1.5-0.2,1.9,0.4l8.6,13.1c0.2,0.3,0.2,0.7,0.2,1.1
			c-0.1,0.3-0.3,0.7-0.6,0.9l-0.4,0.2c-0.3,0.2-0.6,0.4-0.9,0.5c-5.5,3.4-11.5,5.7-17.8,6.9C112.8,126.5,112.2,126.2,111.9,125.8z"
			/>
		<path class="st0" d="M121.9,105.1c-0.2-0.3-0.2-0.7-0.2-1c0.1-0.3,0.3-0.7,0.6-0.9c3.8-2.4,7.1-5.6,9.7-9.3
			c0.4-0.6,1.3-0.8,1.9-0.4l12.8,8.9c0.6,0.4,0.8,1.3,0.4,1.9c-3.9,5.7-8.9,10.5-14.7,14.3c-0.7,0.4-1.5,0.2-1.9-0.4L121.9,105.1z"
			/>
		<path class="st0" d="M132,95.4c-0.1-0.1-0.2-0.3-0.2-0.5c0-0.3,0-0.7,0.3-1.1c2.6-3.7,4.5-7.9,5.5-12.3c0.2-0.7,0.9-1.2,1.6-1
			l15.2,3.5c0.3,0.1,0.6,0.3,0.9,0.7c0.2,0.3,0.2,0.7,0.2,1.1c-1.6,6.7-4.4,13.1-8.3,18.7c-0.2,0.3-0.5,0.5-0.9,0.6
			c-0.3,0-0.7,0-1.1-0.3l-12.7-9C132.2,95.7,132.1,95.5,132,95.4z"/>
		<path class="st0" d="M137.7,82.6c-0.2-0.3-0.2-0.7-0.2-1.1c1.1-4.4,1.3-9,0.6-13.5c-0.1-0.8,0.4-1.4,1.1-1.6l15.3-2.4
			c0.3,0,0.7,0,1.1,0.3c0.3,0.2,0.5,0.5,0.6,0.9c1.1,6.8,0.9,13.7-0.7,20.5c-0.2,0.7-0.9,1.2-1.6,1l-15.2-3.5
			C138.3,83.1,137.9,82.9,137.7,82.6L137.7,82.6z"/>
		<path class="st0" d="M138.3,68.5c-0.1-0.1-0.2-0.3-0.2-0.5c-0.7-4.7-2.3-9.1-4.8-13.2c0-0.1-0.1-0.2-0.2-0.3l-0.2-0.3
			c-0.4-0.7-0.2-1.5,0.5-1.9l13-8.3c0.7-0.4,1.5-0.2,1.9,0.5l0.2,0.3c0.1,0.2,0.3,0.5,0.4,0.7c3.7,6,6.1,12.7,7.3,19.7
			c0.1,0.8-0.4,1.5-1.1,1.6l-15.3,2.4c-0.3,0-0.7,0-1.1-0.3C138.5,68.8,138.4,68.7,138.3,68.5z"/>
		<path class="st0" d="M122,43.3c-0.3-0.5-0.3-1,0-1.5l8.3-12.8c0.4-0.6,1.3-0.8,1.9-0.4c6.4,4.1,11.8,9.5,16,16
			c0.4,0.7,0.2,1.5-0.5,1.9l-13,8.3c-0.3,0.2-0.7,0.2-1.1,0.2c-0.3-0.1-0.6-0.3-0.9-0.7c-2.7-4.3-6.3-7.9-10.5-10.7
			C122.3,43.5,122.1,43.4,122,43.3z"/>
		<path class="st0" d="M108.9,37.9c-0.2-0.3-0.2-0.7-0.2-1l2.8-14.9c0-0.4,0.3-0.7,0.5-0.9c0.3-0.2,0.6-0.3,1.1-0.2
			c6.9,1.3,13.2,3.9,19,7.6c0.3,0.2,0.5,0.5,0.6,0.9c0,0.3,0,0.7-0.2,1l-8.3,12.8c-0.2,0.3-0.5,0.5-0.9,0.6c-0.4,0.1-0.7,0-1-0.2
			c-3.9-2.5-8.1-4.2-12.6-5.1C109.4,38.5,109.1,38.3,108.9,37.9z"/>
		<path class="st0" d="M94.7,38c-0.1-0.1-0.2-0.3-0.2-0.4l-2.9-14.9c0-0.3,0-0.7,0.2-1c0.2-0.3,0.5-0.5,0.9-0.6
			c6.8-1.3,13.7-1.4,20.5,0c0.7,0.2,1.2,0.9,1.1,1.6l-2.9,15c0,0.4-0.3,0.7-0.5,0.9c-0.3,0.2-0.6,0.3-1.1,0.2
			c-4.5-0.9-9.1-0.9-13.7,0C95.6,38.7,95,38.4,94.7,38z"/>
		<path class="st0" d="M73.3,30.5c-0.2-0.3-0.2-0.7-0.2-1c0.1-0.3,0.3-0.6,0.6-0.9l0.4-0.2c0.3-0.2,0.6-0.4,0.9-0.5
			c5.5-3.4,11.5-5.7,17.8-6.9c0.7-0.2,1.5,0.4,1.6,1.1l2.9,14.9c0.2,0.7-0.4,1.5-1.1,1.6c-4.2,0.8-8.1,2.4-11.7,4.6
			c-0.2,0.1-0.5,0.3-0.7,0.4l-0.3,0.2c-0.3,0.2-0.7,0.2-1.1,0.2c-0.3-0.1-0.7-0.3-0.9-0.6L73.3,30.5z"/>
		<path class="st0" d="M58.9,44.4c-0.3-0.5-0.3-1.1,0.1-1.5c3.9-5.7,8.9-10.5,14.7-14.3c0.7-0.4,1.5-0.2,1.9,0.4l8.3,12.8
			c0.4,0.7,0.2,1.5-0.4,1.9c-3.9,2.5-7.1,5.7-9.8,9.5c-0.2,0.3-0.5,0.5-0.9,0.6s-0.7,0-1.1-0.3l-12.5-8.8
			C59.2,44.7,59.1,44.6,58.9,44.4z"/>
		<path class="st0" d="M50.9,62.7c-0.2-0.3-0.2-0.7-0.2-1.1c1.6-6.7,4.4-13.1,8.3-18.7c0.2-0.3,0.5-0.5,0.9-0.6c0.3,0,0.7,0,1.1,0.3
			l12.5,8.8c0.6,0.4,0.8,1.3,0.4,1.9c-2.6,3.7-4.4,8-5.4,12.5c-0.1,0.3-0.3,0.7-0.7,0.9c-0.3,0.2-0.7,0.2-1.1,0.2l-15-3.4
			C51.3,63.2,51.1,63,50.9,62.7L50.9,62.7z"/>
		<path class="st0" d="M50.2,82.6c-0.1-0.1-0.2-0.3-0.2-0.5c-1.1-6.8-0.9-13.7,0.7-20.5c0.2-0.7,0.9-1.2,1.6-1l15,3.4
			c0.7,0.2,1.2,0.9,1,1.6c-1,4.5-1.2,9-0.3,13.6c0,0.3,0,0.7-0.3,1.1c-0.2,0.3-0.5,0.5-0.9,0.6l-15.2,2.4c-0.3,0-0.7,0-1.1-0.3
			C50.4,82.9,50.3,82.8,50.2,82.6z"/>
		<path class="st0" d="M57.3,101.8c-3.7-6-6.1-12.7-7.3-19.7c-0.1-0.8,0.4-1.5,1.1-1.6l15.3-2.4c0.8-0.1,1.4,0.4,1.6,1.1
			c0.8,4.5,2.3,8.8,4.7,12.7c0.1,0.2,0.2,0.4,0.4,0.6l0.2,0.3c0.2,0.3,0.2,0.7,0.2,1.1c-0.1,0.3-0.3,0.7-0.6,0.9l-13.1,8.4
			c-0.3,0.2-0.7,0.2-1.1,0.2c-0.3-0.1-0.7-0.3-0.9-0.6l-0.2-0.3C57.5,102.1,57.4,102,57.3,101.8z"/>
		<path class="st0" d="M57.9,102.7c-0.4-0.7-0.2-1.5,0.5-1.9l13.1-8.4c0.7-0.4,1.5-0.2,1.9,0.4c2.8,4.2,6.3,7.8,10.6,10.5
			c0.3,0.2,0.5,0.5,0.6,0.9c0.1,0.4,0,0.7-0.2,1l-8.5,13.2c-0.4,0.6-1.3,0.8-1.9,0.4C67.5,114.7,62.1,109.2,57.9,102.7L57.9,102.7z"
			/>
		<path class="st0" d="M73.4,118.3c-0.1-0.1-0.2-0.3-0.2-0.4c0-0.3,0-0.7,0.2-1l8.5-13.2c0.4-0.6,1.3-0.9,1.9-0.4
			c3.8,2.4,8,4.1,12.5,5c0.4,0,0.7,0.3,0.9,0.5c0.2,0.3,0.3,0.6,0.2,1.1l-3,15.5c0,0.4-0.3,0.7-0.5,0.9c-0.3,0.2-0.6,0.3-1.1,0.2
			c-6.9-1.3-13.2-3.9-19-7.6C73.7,118.7,73.5,118.5,73.4,118.3z"/>
		<path class="st0" d="M92,125.8c-0.2-0.3-0.2-0.7-0.2-1l3-15.5c0.2-0.7,0.9-1.2,1.6-1.1c4.5,0.9,9,0.8,13.4,0
			c0.7-0.2,1.5,0.4,1.6,1.1l3,15.4c0,0.3,0,0.7-0.2,1s-0.5,0.5-0.9,0.6c-6.8,1.3-13.7,1.4-20.5,0C92.5,126.3,92.2,126.1,92,125.8z"
			/>
		<path class="st3" d="M59.4,68.1l-2.2,12.5l-11.6,5.2c-1.2,0.6-0.9,2.7,0.4,2.9L58.5,91l5.2,11.6c0.3,0.7,0.9,0.9,1.6,0.9
			s1.2-0.6,1.3-1.2l2.2-12.5l11.6-5.2c0.6-0.3,0.9-0.9,0.9-1.6c-0.1-0.7-0.6-1.2-1.2-1.3l-12.5-2.2l-5.2-11.6
			c-0.3-0.7-0.9-0.9-1.6-0.9C60,67,59.5,67.5,59.4,68.1z"/>
		<path class="st3" d="M74.2,48.2l-1.5,8.9l-8.3,3.7c-0.9,0.4-0.7,1.9,0.3,2.1l8.9,1.5l3.7,8.3c0.2,0.5,0.7,0.7,1.1,0.7
			c0.5-0.1,0.9-0.4,0.9-0.9l1.5-8.9l8.3-3.7c0.5-0.2,0.7-0.7,0.7-1.1c-0.1-0.5-0.4-0.9-0.9-0.9l-8.9-1.5L76.4,48
			c-0.2-0.5-0.7-0.7-1.1-0.7C74.6,47.4,74.2,47.7,74.2,48.2z"/>
		<path class="st3" d="M95,60.1L93.5,69l-8.2,3.7c-0.9,0.4-0.7,1.9,0.3,2.1l8.9,1.5l3.7,8.3c0.2,0.5,0.7,0.7,1.1,0.7
			c0.5-0.1,0.9-0.4,0.9-0.9l1.5-8.9l8.3-3.7c0.5-0.2,0.7-0.7,0.7-1.1s-0.4-0.9-0.9-0.9l-8.9-1.5l-3.7-8.3c-0.2-0.5-0.7-0.7-1.1-0.7
			C95.5,59.3,95.1,59.6,95,60.1z"/>
		<path class="st1" d="M57.7,72.8l-2.2,12.5L44,90.5c-1.2,0.6-0.9,2.7,0.4,2.9l12.5,2.2l5.2,11.6c0.3,0.7,0.9,0.9,1.6,0.9
			c0.7-0.1,1.2-0.6,1.3-1.2l2.2-12.5l11.6-5.2c0.6-0.3,0.9-0.9,0.9-1.6c-0.1-0.7-0.6-1.2-1.2-1.3L65.9,84l-5.2-11.6
			c-0.3-0.7-0.9-0.9-1.6-0.9S57.8,72.1,57.7,72.8z"/>
		<path class="st1" d="M72.6,52.8l-1.5,8.9l-8.3,3.7c-0.9,0.4-0.7,1.9,0.3,2.1L72,69l3.7,8.3c0.2,0.5,0.7,0.7,1.1,0.7
			c0.5-0.1,0.9-0.4,0.9-0.9l1.5-8.9l8.3-3.7c0.5-0.2,0.7-0.7,0.7-1.1c-0.1-0.5-0.4-0.9-0.9-0.9l-8.9-1.5l-3.7-8.3
			c-0.2-0.5-0.7-0.7-1.1-0.7C73,52.1,72.6,52.3,72.6,52.8z"/>
		<path class="st1" d="M93.4,64.8l-1.5,8.9l-8.2,3.7c-0.9,0.4-0.7,1.9,0.3,2.1l8.9,1.5l3.7,8.3c0.2,0.5,0.7,0.7,1.1,0.7
			c0.5-0.1,0.9-0.4,0.9-0.9l1.5-8.9l8.3-3.7c0.5-0.2,0.7-0.7,0.7-1.1s-0.4-0.9-0.9-0.9l-8.9-1.5l-3.7-8.3c-0.2-0.5-0.7-0.7-1.1-0.7
			C93.9,64,93.5,64.3,93.4,64.8z"/>
		<path class="st4" d="M59.4,68.1l-2.2,12.5l-11.6,5.2c-1.2,0.6-0.9,2.7,0.4,2.9L58.5,91l5.2,11.6c0.3,0.7,0.9,0.9,1.6,0.9
			s1.2-0.6,1.3-1.2l2.2-12.5l11.6-5.2c0.6-0.3,0.9-0.9,0.9-1.6c-0.1-0.7-0.6-1.2-1.2-1.3l-12.5-2.2l-5.2-11.6
			c-0.3-0.7-0.9-0.9-1.6-0.9C60,67,59.5,67.5,59.4,68.1z"/>
		<path class="st4" d="M74.2,48.2l-1.5,8.9l-8.3,3.7c-0.9,0.4-0.7,1.9,0.3,2.1l8.9,1.5l3.7,8.3c0.2,0.5,0.7,0.7,1.1,0.7
			c0.5-0.1,0.9-0.4,0.9-0.9l1.5-8.9l8.3-3.7c0.5-0.2,0.7-0.7,0.7-1.1c-0.1-0.5-0.4-0.9-0.9-0.9l-8.9-1.5L76.4,48
			c-0.2-0.5-0.7-0.7-1.1-0.7C74.6,47.4,74.2,47.7,74.2,48.2z"/>
		<path class="st4" d="M95,60.1L93.5,69l-8.2,3.7c-0.9,0.4-0.7,1.9,0.3,2.1l8.9,1.5l3.7,8.3c0.2,0.5,0.7,0.7,1.1,0.7
			c0.5-0.1,0.9-0.4,0.9-0.9l1.5-8.9l8.3-3.7c0.5-0.2,0.7-0.7,0.7-1.1s-0.4-0.9-0.9-0.9l-8.9-1.5l-3.7-8.3c-0.2-0.5-0.7-0.7-1.1-0.7
			C95.5,59.3,95.1,59.6,95,60.1z"/>
	</g>
</g>
<g id="city" class="st5">
</g>
</svg>
