<?xml version="1.0" encoding="utf-8"?>
<!-- Generator: Adobe Illustrator 23.0.2, SVG Export Plug-In . SVG Version: 6.00 Build 0)  -->
<svg version="1.1" xmlns="http://www.w3.org/2000/svg" xmlns:xlink="http://www.w3.org/1999/xlink" x="0px" y="0px"
	 viewBox="0 0 200 200" enable-background="new 0 0 200 200" xml:space="preserve">
<g id="city" display="none">
</g>
<g id="icons">
	<g>
		
			<rect x="27.575" y="68.591" fill="#FFFFFF" stroke="#323233" stroke-width="3" stroke-miterlimit="10" width="148.042" height="87.024"/>
		<path fill="#FFFFFF" stroke="#323233" stroke-width="3" stroke-miterlimit="10" d="M147.145,77.179H56.048
			c-0.699,8.614-7.123,15.596-15.469,17.143v35.562c8.346,1.547,14.769,8.53,15.469,17.143h91.097
			c0.699-8.614,7.123-15.596,15.469-17.143V94.322C154.268,92.775,147.844,85.793,147.145,77.179z"/>
		<ellipse fill="#FFC244" cx="97.596" cy="115.603" rx="16.333" ry="27.508"/>
		<path fill="#F3F3F3" stroke="#323233" stroke-width="3" stroke-miterlimit="10" d="M109.113,165.982L134.518,188v-11.743h26.421
			c0,0,27.889,1.468,27.889-20.55c0-14.678-5.871-24.953-13.211-27.889v14.678c0,0,0,12.991-16.228,12.991
			c-16.065,0-24.872,0-24.872,0v-11.523L109.113,165.982z"/>
		<path fill="#F3F3F3" stroke="#323233" stroke-width="3" stroke-miterlimit="10" d="M93.887,58.018L68.482,36v11.743H42.061
			c0,0-27.889-1.468-27.889,20.55c0,14.678,5.871,24.953,13.211,27.889V81.503c0,0,0-12.991,16.228-12.991
			c16.065,0,24.872,0,24.872,0v11.523L93.887,58.018z"/>
		
			<ellipse fill="none" stroke="#323233" stroke-width="3" stroke-miterlimit="10" cx="101.596" cy="111.603" rx="16.333" ry="27.508"/>
		<path fill="#FFC244" d="M105.113,169.982L130.518,192v-11.743h26.421c0,0,27.889,1.468,27.889-20.55
			c0-14.678-5.871-24.953-13.211-27.889v14.678c0,0,0,12.991-16.228,12.991c-16.065,0-24.872,0-24.872,0v-11.523L105.113,169.982z"
			/>
		<path fill="none" stroke="#323233" stroke-width="3" stroke-miterlimit="10" d="M109.113,165.982L134.518,188v-11.743h26.421
			c0,0,27.889,1.468,27.889-20.55c0-14.678-5.871-24.953-13.211-27.889v14.678c0,0,0,12.991-16.228,12.991
			c-16.065,0-24.872,0-24.872,0v-11.523L109.113,165.982z"/>
		<path fill="#FFC244" d="M90.887,62.018L65.482,40v11.743H39.061c0,0-27.889-1.468-27.889,20.55
			c0,14.678,5.871,24.953,13.211,27.889V85.503c0,0,0-12.991,16.228-12.991c16.065,0,24.872,0,24.872,0v11.523L90.887,62.018z"/>
		<path fill="none" stroke="#323233" stroke-width="3" stroke-miterlimit="10" d="M93.887,58.018L68.482,36v11.743H42.061
			c0,0-27.889-1.468-27.889,20.55c0,14.678,5.871,24.953,13.211,27.889V81.503c0,0,0-12.991,16.228-12.991
			c16.065,0,24.872,0,24.872,0v11.523L93.887,58.018z"/>
		<path fill="none" stroke="#323233" stroke-width="3" stroke-miterlimit="10" d="M67.813,77.179H56.048
			c-0.699,8.614-7.123,15.596-15.469,17.143v35.562c8.346,1.547,14.769,8.53,15.469,17.143h91.097
			c0.699-8.614,7.123-15.596,15.469-17.143V94.322c-8.346-1.547-14.769-8.53-15.469-17.143H72.541"/>
	</g>
</g>
</svg>
