<?xml version="1.0" encoding="utf-8"?>
<!-- Generator: Adobe Illustrator 23.0.2, SVG Export Plug-In . SVG Version: 6.00 Build 0)  -->
<svg version="1.1" xmlns="http://www.w3.org/2000/svg" xmlns:xlink="http://www.w3.org/1999/xlink" x="0px" y="0px"
	 viewBox="0 0 200 200" enable-background="new 0 0 200 200" xml:space="preserve">
<g id="city" display="none">
</g>
<g id="icons">
	<g>
		
			<rect x="168.638" y="146.943" fill="#FFFFFF" stroke="#323233" stroke-width="3" stroke-miterlimit="10" width="19.717" height="34.17"/>
		
			<rect x="126.021" y="146.943" fill="#FFFFFF" stroke="#323233" stroke-width="3" stroke-miterlimit="10" width="19.717" height="34.17"/>
		<path fill="#FFFFFF" stroke="#323233" stroke-width="3" stroke-miterlimit="10" d="M136.572,127.663v53.451h38.392v-34.17h13.391
			v-7.338c0-6.596-4.724-11.943-10.551-11.943H136.572z M177.804,127.663"/>
		
			<rect x="11.644" y="137.24" fill="#FFFFFF" stroke="#323233" stroke-width="3" stroke-miterlimit="10" width="25.316" height="43.873"/>
		<path fill="#FFFFFF" stroke="#323233" stroke-width="3" stroke-miterlimit="10" d="M113.868,143.022
			c-3.641-3.318-9.547-3.318-13.191,0l-4.276,3.894l-7.037-14.401l-16.371,6.638l12.842,25.528c0.442,0.82,0.996,1.602,1.745,2.284
			c3.643,3.316,9.548,3.316,13.191,0l13.098-11.931C117.509,151.718,117.509,146.339,113.868,143.022L113.868,143.022z
			 M113.868,143.022"/>
		<path fill="#FFFFFF" stroke="#323233" stroke-width="3" stroke-miterlimit="10" d="M91.68,127.819
			c0-8.47-6.064-15.334-13.548-15.334c-7.483,0-13.548,6.865-13.548,15.334v9.421H91.68V127.819z M91.68,127.819"/>
		<path fill="#FFFFFF" stroke="#323233" stroke-width="3" stroke-miterlimit="10" d="M25.192,112.484
			c-7.483,0-13.548,6.865-13.548,15.334v9.421h17.194v43.873h49.295v-68.629H25.192z M25.192,112.484"/>
		<g>
			<path fill="#FFFFFF" stroke="#323233" stroke-width="3" stroke-miterlimit="10" d="M91.969,37.907h54.562
				c2.118,0.011,3.83,1.724,3.842,3.842v25.716c-0.006,2.118-1.724,3.837-3.842,3.843h-36.313L98.14,80.904v-9.596h-6.171
				c-2.118,0-3.836-1.719-3.836-3.843V41.749C88.138,39.631,89.851,37.912,91.969,37.907L91.969,37.907z M91.969,37.907"/>
			<path fill="#FFFFFF" stroke="#323233" stroke-width="3" stroke-miterlimit="10" d="M91.969,37.907h54.562
				c2.118,0.011,3.83,1.724,3.842,3.842v25.716c-0.006,2.118-1.724,3.837-3.842,3.843h-36.313L98.14,80.904v-9.596h-6.171
				c-2.118,0-3.836-1.719-3.836-3.843V41.749C88.138,39.631,89.851,37.912,91.969,37.907L91.969,37.907z M91.969,37.907"/>
		</g>
		<path fill="#FFFFFF" stroke="#323233" stroke-width="3" stroke-miterlimit="10" d="M126.021,146.943h21.103v-7.338
			c0-6.596-4.724-11.943-10.551-11.943c-5.828,0-10.551,5.347-10.551,11.943V146.943z M126.021,139.606"/>
		<path fill="#FFC244" d="M136.572,133.663v53.451h32.392v-34.17h13.391v-7.338c0-6.596-4.724-11.943-10.551-11.943H136.572z
			 M171.804,133.663"/>
		<path fill="#FFC244" d="M19.192,118.484c-7.483,0-13.548,6.865-13.548,15.334v9.421h17.194v43.873h49.295v-68.629H19.192z
			 M19.192,118.484"/>
		<path fill="none" stroke="#323233" stroke-width="3" stroke-miterlimit="10" d="M136.572,127.663v53.451h38.392v-34.17h13.391
			v-7.338c0-6.596-4.724-11.943-10.551-11.943H136.572z M177.804,127.663"/>
		<path fill="none" stroke="#323233" stroke-width="3" stroke-miterlimit="10" d="M25.192,112.484
			c-7.483,0-13.548,6.865-13.548,15.334v9.421h17.194v43.873h49.295v-68.629H25.192z M25.192,112.484"/>
		<g>
			<path fill="#FFC244" d="M85.969,43.907h54.562c2.118,0.011,3.83,1.724,3.842,3.842v25.716c-0.006,2.118-1.724,3.837-3.842,3.843
				h-36.313L92.14,86.904v-9.596h-6.171c-2.118,0-3.836-1.719-3.836-3.843V47.749C82.138,45.631,83.851,43.912,85.969,43.907
				L85.969,43.907z M85.969,43.907"/>
			<path fill="#FFC244" d="M85.969,43.907h54.562c2.118,0.011,3.83,1.724,3.842,3.842v25.716c-0.006,2.118-1.724,3.837-3.842,3.843
				h-36.313L92.14,86.904v-9.596h-6.171c-2.118,0-3.836-1.719-3.836-3.843V47.749C82.138,45.631,83.851,43.912,85.969,43.907
				L85.969,43.907z M85.969,43.907"/>
		</g>
		<path fill="#FFFFFF" stroke="#323233" stroke-width="3" stroke-miterlimit="10" d="M75.801,71.416L60.316,59.221
			c-3.915-1.958-6.734,4.436-11.548,4.431c-4.839-0.005-9.375,1.127-13.31,3.095l-13.824,8.47v12.435h-0.014
			c0,21.142,13.777,30.834,27.062,35.239c14.205,4.711,27.113-10.729,27.134-24.001l0.014-11.178c0-0.021-0.003-0.039-0.003-0.06
			h0.003L75.801,71.416z M75.801,71.416"/>
		<path fill="#FFFFFF" stroke="#323233" stroke-width="3" stroke-miterlimit="10" d="M21.721,73.389
			c0.594-13.486,12.489-24.257,27.11-24.257c15.006,0,27.171,11.33,27.171,25.307c0,1.689-0.187,3.336-0.525,4.933
			c-1.016-4.216-3.628-7.863-7.205-10.388c-4.055,11.089-20.902,12.239-30.767,11.913c-0.118,0.8-0.198,1.607-0.198,2.436v3.064
			c0,0.163-0.04,0.314-0.052,0.473c-0.264,3.807-3.631,6.829-7.784,6.829c-4.332,0-7.839-3.27-7.839-7.302V74.215
			C21.632,73.933,21.687,73.664,21.721,73.389L21.721,73.389z M21.721,73.389"/>
		<path fill="#FFFFFF" stroke="#323233" stroke-width="3" stroke-miterlimit="10" d="M138.366,108.322h0.002
			c0,0.017-0.002,0.031-0.002,0.047l0.011,8.706c0.016,10.337,10.069,22.362,21.133,18.693
			c10.346-3.431,21.076-10.979,21.076-27.445h-0.011v-9.685l-10.767-6.596c-3.065-1.533-6.597-2.415-10.366-2.411
			c-3.749,0.004-5.944-4.976-8.994-3.451l-12.061,9.498L138.366,108.322z M138.388,95.677"/>
		<path fill="#FFFFFF" stroke="#323233" stroke-width="3" stroke-miterlimit="10" d="M180.507,97.214
			c0.027,0.214,0.069,0.423,0.069,0.643v9.488c0,3.14-2.732,5.687-6.105,5.687c-3.235,0-5.857-2.354-6.062-5.318
			c-0.009-0.124-0.041-0.242-0.041-0.369v-2.386c0-0.645-0.062-1.274-0.154-1.897c-7.684,0.254-20.804-0.642-23.963-9.278
			c-2.785,1.967-4.82,4.807-5.611,8.091c-0.264-1.244-0.409-2.526-0.409-3.842c0-10.886,9.474-19.71,21.162-19.71
			C170.781,78.322,180.045,86.711,180.507,97.214L180.507,97.214z M180.507,97.214"/>
		<g>
			<path fill="none" stroke="#323233" stroke-width="3" stroke-miterlimit="10" d="M91.969,37.907h54.562
				c2.118,0.011,3.83,1.724,3.842,3.842v25.716c-0.006,2.118-1.724,3.837-3.842,3.843h-36.313L98.14,80.904v-9.596h-6.171
				c-2.118,0-3.836-1.719-3.836-3.843V41.749C88.138,39.631,89.851,37.912,91.969,37.907L91.969,37.907z M91.969,37.907"/>
			<path fill="none" stroke="#323233" stroke-width="3" stroke-miterlimit="10" d="M91.969,37.907h54.562
				c2.118,0.011,3.83,1.724,3.842,3.842v25.716c-0.006,2.118-1.724,3.837-3.842,3.843h-36.313L98.14,80.904v-9.596h-6.171
				c-2.118,0-3.836-1.719-3.836-3.843V41.749C88.138,39.631,89.851,37.912,91.969,37.907L91.969,37.907z M91.969,37.907"/>
		</g>
		
			<rect x="11.644" y="137.24" fill="none" stroke="#323233" stroke-width="3" stroke-miterlimit="10" width="17.356" height="43.873"/>
	</g>
</g>
</svg>
