<svg xmlns="http://www.w3.org/2000/svg" width="80" height="80" viewBox="0 0 80 80">
    <g fill="none" fill-rule="evenodd">
        <path fill="#E8BE64" d="M57.258 52.33l13.566 25.906H45.952L39.67 65.824z"/>
        <path stroke="#595957" stroke-linecap="round" stroke-linejoin="round" stroke-width="1.152" d="M57.258 52.33l13.566 25.906H45.952L39.67 65.824z"/>
        <path fill="#E8BE64" d="M10.507 20.984a2.677 2.677 0 0 0 1.26 3.577l11.037 5.33c1.336.637.053.076.69-1.26l.752-1.565c.636-1.332 2.959-2.936 1.623-3.578l-11.014-5.324a2.682 2.682 0 0 0-3.577 1.259l-.77 1.561z"/>
        <path stroke="#595957" stroke-linecap="round" stroke-linejoin="round" stroke-width="1.152" d="M10.507 20.984a2.677 2.677 0 0 0 1.26 3.577l11.037 5.33c1.336.637.053.076.69-1.26l.752-1.565c.636-1.332 2.959-2.936 1.623-3.578l-11.014-5.324a2.682 2.682 0 0 0-3.577 1.259l-.77 1.561z"/>
        <path stroke="#FFF" stroke-linecap="round" stroke-linejoin="round" stroke-width=".865" d="M25.653 26.362c.124-.25.14-.539.044-.8a1.03 1.03 0 0 0-.532-.594l-11.047-5.33a1.01 1.01 0 0 0-.446-.1 1.034 1.034 0 0 0-.957.594l-.747 1.56c-.12.251-.135.539-.043.8.092.266.29.482.546.599"/>
        <path fill="#E8BE64" d="M41.26 48.561v.613a7.935 7.935 0 0 1 7.934-7.934h4.348V30.547c0-3.544.546-9.898 6.417-9.898.531 0 .435.651.435.651v30.91c-.158 9.555-7.948 17.218-17.504 17.218-9.556 0-17.347-7.663-17.505-17.218v-3.649H41.26z"/>
        <path stroke="#595957" stroke-linecap="round" stroke-linejoin="round" stroke-width="1.152" d="M41.26 48.561v.613a7.935 7.935 0 0 1 7.934-7.934h4.348V30.547c0-3.544.546-9.898 6.417-9.898.531 0 .435.651.435.651v30.91c-.158 9.555-7.948 17.218-17.504 17.218-9.556 0-17.347-7.663-17.505-17.218v-3.649H41.26z"/>
        <path fill="#2ABB9B" d="M20.65 1.05h30.234a2.945 2.945 0 0 1 2.945 2.944V54.6a2.945 2.945 0 0 1-2.945 2.945H20.65a2.945 2.945 0 0 1-2.945-2.945V3.994A2.945 2.945 0 0 1 20.65 1.05z"/>
        <path stroke="#575756" stroke-linecap="round" stroke-linejoin="round" stroke-width="1.152" d="M20.65 1.05h30.234a2.945 2.945 0 0 1 2.945 2.944V54.6a2.945 2.945 0 0 1-2.945 2.945H20.65a2.945 2.945 0 0 1-2.945-2.945V3.994A2.945 2.945 0 0 1 20.65 1.05z"/>
        <path stroke="#FFF" stroke-linecap="round" stroke-linejoin="round" stroke-width=".865" d="M50.884 55.912c.725 0 1.312-.588 1.312-1.312V4c0-.726-.587-1.313-1.312-1.313H20.65a1.312 1.312 0 0 0-1.321 1.312"/>
        <path fill="#FFF" d="M21.583 48.566h27.319V7.72H21.583z"/>
        <path stroke="#5A5B5C" stroke-linecap="round" stroke-linejoin="round" stroke-width="1.152" d="M21.583 7.72h27.319v40.846H21.583z"/>
        <path fill="#E8BE64" d="M41.26 60.154h14.566V41.747l-7.14.086-4.601 5.957-2.826 2.38z"/>
        <path fill="#FFF" d="M22.048 8.263h26.274v39.829H22.048z"/>
        <path fill="#E8BE64" d="M41.26 59.106v-9.932a7.935 7.935 0 0 1 7.934-7.934h4.635"/>
        <path stroke="#595957" stroke-linecap="round" stroke-linejoin="round" stroke-width="1.152" d="M41.26 59.106v-9.932a7.935 7.935 0 0 1 7.934-7.934h4.635"/>
        <path fill="#E8BE64" d="M13.926 46.584h5.44c1.481 0 2.682 1.2 2.682 2.681V51c0 1.48-1.2 2.681-2.682 2.681h-5.44A2.682 2.682 0 0 1 11.245 51v-1.734c0-1.48 1.2-2.681 2.681-2.681z"/>
        <path stroke="#595957" stroke-linecap="round" stroke-linejoin="round" stroke-width="1.152" d="M13.926 46.584h5.44c1.481 0 2.682 1.2 2.682 2.681V51c0 1.48-1.201 2.681-2.682 2.681h-5.44A2.682 2.682 0 0 1 11.245 51v-1.734c0-1.48 1.2-2.681 2.681-2.681z"/>
        <path fill="#E8BE64" d="M11.254 39.52h8.117c1.48 0 2.681 1.201 2.681 2.682v1.734c0 1.48-1.2 2.681-2.681 2.681h-8.117a2.682 2.682 0 0 1-2.681-2.681v-1.734c0-1.48 1.2-2.681 2.681-2.681z"/>
        <path stroke="#595957" stroke-linecap="round" stroke-linejoin="round" stroke-width="1.152" d="M11.254 39.52h8.117c1.48 0 2.681 1.201 2.681 2.682v1.734c0 1.48-1.2 2.681-2.681 2.681h-8.117a2.682 2.682 0 0 1-2.681-2.681v-1.734c0-1.48 1.2-2.681 2.681-2.681z"/>
        <path fill="#E8BE64" d="M12.59 32.18h6.776c1.481 0 2.682 1.2 2.682 2.681v1.734c0 1.48-1.2 2.681-2.682 2.681H12.59a2.682 2.682 0 0 1-2.681-2.681V34.86c0-1.48 1.2-2.681 2.681-2.681z"/>
        <path stroke="#595957" stroke-linecap="round" stroke-linejoin="round" stroke-width="1.152" d="M12.59 32.18h6.776c1.481 0 2.682 1.2 2.682 2.681v1.734c0 1.48-1.201 2.681-2.682 2.681H12.59a2.682 2.682 0 0 1-2.681-2.681V34.86c0-1.48 1.2-2.681 2.681-2.681z"/>
        <path stroke="#FFF" stroke-linecap="round" stroke-linejoin="round" stroke-width=".865" d="M20.415 36.59v-1.729c0-.576-.468-1.044-1.044-1.044h-6.78M20.415 43.706v-1.734a1.049 1.049 0 0 0-1.044-1.044h-6.78M20.415 50.865v-1.729c0-.577-.468-1.044-1.044-1.044h-5.627M59.073 22.095v29.727s-1.044 16.454-16.166 16.454"/>
        <path stroke="#FFF" stroke-linecap="round" stroke-linejoin="round" stroke-width=".865" d="M55.39 42.724h-6.488s-6.01.22-6.01 6.062v9.956M31.548 50.596h-8.351M67.888 76.455L59.997 61.83"/>
        <path fill="#00A082" d="M37.994 53.01a2.854 2.854 0 1 1-5.708 0 2.854 2.854 0 0 1 5.708 0z"/>
        <path stroke="#575756" stroke-linecap="round" stroke-linejoin="round" stroke-width="1.152" d="M37.994 53.01a2.854 2.854 0 1 1-5.708 0 2.854 2.854 0 0 1 5.708 0z"/>
        <g>
            <path fill="#CCCAC8" d="M35.123 13.345a6.794 6.794 0 0 1 1.82.745c.243-.17.5-.354.756-.537a1.233 1.233 0 0 1 1.612.183l.83.916c.39.427.415 1.062.085 1.538-.183.256-.366.513-.561.757.207.403.378.818.5 1.245.269.037.55.061.83.098.611.073 1.075.598 1.075 1.22v1.234c0 .574-.403 1.074-.965 1.196-.305.061-.598.135-.903.184a7.256 7.256 0 0 1-.66 1.587c.172.22.343.44.526.671.378.489.33 1.185-.098 1.624l-.879.88a1.236 1.236 0 0 1-1.526.17c-.293-.183-.574-.378-.867-.574-.5.269-1.038.476-1.6.61-.06.355-.134.697-.207 1.05a1.226 1.226 0 0 1-1.196.977h-1.221a1.228 1.228 0 0 1-1.221-1.074c-.05-.378-.086-.745-.135-1.099a7.114 7.114 0 0 1-1.623-.781c-.354.22-.709.427-1.063.647-.5.293-1.135.195-1.526-.244l-.818-.916a1.228 1.228 0 0 1-.012-1.624c.28-.317.55-.635.818-.928a6.168 6.168 0 0 1-.33-.903 25.1 25.1 0 0 1-1.318-.257 1.226 1.226 0 0 1-.977-1.196v-1.221c0-.623.464-1.148 1.075-1.22.427-.05.842-.099 1.233-.147a7.12 7.12 0 0 1 .5-1.221c-.256-.367-.5-.72-.745-1.1a1.22 1.22 0 0 1 .16-1.537l.866-.867a1.23 1.23 0 0 1 1.624-.098c.305.244.61.476.891.708.39-.22.794-.403 1.221-.55.037-.353.085-.72.134-1.098a1.228 1.228 0 0 1 1.221-1.074h1.233c.574 0 1.075.402 1.197.964.11.354.183.708.244 1.062zm-1.99 8.827a1.65 1.65 0 0 0 0-3.296 1.65 1.65 0 0 0 0 3.296z"/>
            <path stroke="#5A5B5C" d="M35.123 13.345a6.794 6.794 0 0 1 1.82.745c.243-.17.5-.354.756-.537a1.233 1.233 0 0 1 1.612.183l.83.916c.39.427.415 1.062.085 1.538-.183.256-.366.513-.561.757.207.403.378.818.5 1.245.269.037.55.061.83.098.611.073 1.075.598 1.075 1.22v1.234c0 .574-.403 1.074-.965 1.196-.305.061-.598.135-.903.184a7.256 7.256 0 0 1-.66 1.587c.172.22.343.44.526.671.378.489.33 1.185-.098 1.624l-.879.88a1.236 1.236 0 0 1-1.526.17c-.293-.183-.574-.378-.867-.574-.5.269-1.038.476-1.6.61-.06.355-.134.697-.207 1.05a1.226 1.226 0 0 1-1.196.977h-1.221a1.228 1.228 0 0 1-1.221-1.074c-.05-.378-.086-.745-.135-1.099a7.113 7.113 0 0 1-1.623-.781c-.354.22-.709.427-1.063.647-.5.293-1.135.195-1.526-.244l-.818-.916a1.228 1.228 0 0 1-.012-1.624c.28-.317.55-.635.818-.928a6.168 6.168 0 0 1-.33-.903c-.44-.073-.879-.159-1.318-.257a1.226 1.226 0 0 1-.977-1.196v-1.22c0-.624.464-1.149 1.075-1.222.427-.049.842-.098 1.233-.146.134-.428.293-.83.5-1.221-.256-.367-.5-.72-.745-1.1a1.22 1.22 0 0 1 .16-1.537l.866-.867a1.23 1.23 0 0 1 1.624-.098c.305.244.61.476.891.708.39-.22.794-.403 1.221-.55.037-.353.085-.72.134-1.098a1.228 1.228 0 0 1 1.221-1.074h1.233c.574 0 1.075.402 1.197.964.11.354.183.708.244 1.062zm-1.99 8.827a1.65 1.65 0 0 0 0-3.296 1.65 1.65 0 0 0 0 3.296z"/>
            <path stroke="#FFF" stroke-linecap="round" stroke-linejoin="round" stroke-width=".633" d="M27.763 16.592c-.44-.574-.708-.94-.794-1.124-.06-.11-.317-.317 0-.635l1.123-1.123M31.73 13.625c.037-.354.086-.733.147-1.148.025-.33.232-.5.623-.5.574 0 .427-.025 1.172 0M37.237 14.663c.61-.452 1.196-.94 1.514-.562.134.159.5.537 1.11 1.27"/>
        </g>
        <g>
            <path fill="#CCCAC8" d="M38.348 31.007c.539.133 1.048.346 1.516.621.203-.142.417-.295.63-.448a1.027 1.027 0 0 1 1.344.153l.691.763c.326.356.346.885.072 1.282-.153.214-.306.427-.468.63.173.337.315.683.417 1.039.224.03.458.05.692.081.508.061.895.499.895 1.017v1.028c0 .478-.336.895-.804.997-.254.051-.498.112-.753.153a6.047 6.047 0 0 1-.55 1.322l.438.56c.316.407.275.987-.081 1.353l-.733.733a1.03 1.03 0 0 1-1.271.142c-.245-.152-.479-.315-.723-.478a5.552 5.552 0 0 1-1.333.509c-.05.295-.111.58-.172.875a1.022 1.022 0 0 1-.998.814H36.14c-.519 0-.956-.387-1.017-.896-.041-.315-.072-.62-.112-.915a5.928 5.928 0 0 1-1.354-.652c-.295.184-.59.357-.885.54a1.012 1.012 0 0 1-1.271-.204l-.682-.763a1.023 1.023 0 0 1-.01-1.353c.234-.265.458-.53.681-.773a5.14 5.14 0 0 1-.274-.753 20.916 20.916 0 0 1-1.1-.214 1.022 1.022 0 0 1-.813-.997v-1.017c0-.52.387-.957.895-1.018.356-.04.702-.081 1.028-.122.112-.356.244-.692.417-1.017-.214-.306-.417-.6-.62-.916a1.017 1.017 0 0 1 .132-1.282l.722-.722a1.025 1.025 0 0 1 1.353-.082c.255.204.509.397.743.59a6.098 6.098 0 0 1 1.017-.457c.03-.295.072-.6.112-.916a1.023 1.023 0 0 1 1.018-.895h1.027c.478 0 .896.335.997.803.092.295.153.59.204.885zm-1.659 7.356a1.374 1.374 0 1 0-.001-2.748 1.374 1.374 0 0 0 .001 2.748z"/>
            <path stroke="#5A5B5C" d="M38.348 31.007c.54.133 1.048.346 1.516.621.203-.142.417-.295.63-.448a1.027 1.027 0 0 1 1.344.153l.691.763c.326.356.346.885.072 1.282-.153.214-.306.427-.468.63.173.337.315.683.417 1.039.224.03.458.05.692.081.508.061.895.499.895 1.017v1.028c0 .478-.336.895-.804.997-.254.051-.498.112-.753.153a6.047 6.047 0 0 1-.55 1.322l.438.56c.316.407.275.987-.081 1.353l-.733.733a1.03 1.03 0 0 1-1.271.142c-.245-.152-.479-.315-.723-.478a5.552 5.552 0 0 1-1.333.509c-.05.295-.111.58-.172.875a1.022 1.022 0 0 1-.998.814H36.14c-.519 0-.956-.387-1.017-.896-.041-.315-.072-.62-.112-.915a5.928 5.928 0 0 1-1.353-.652c-.296.184-.59.357-.886.54a1.012 1.012 0 0 1-1.271-.204l-.682-.763a1.023 1.023 0 0 1-.01-1.353c.234-.265.458-.53.681-.773a5.14 5.14 0 0 1-.274-.753 20.915 20.915 0 0 1-1.1-.214 1.022 1.022 0 0 1-.813-.997v-1.017c0-.52.387-.957.895-1.018.356-.04.702-.081 1.028-.122.112-.356.244-.692.417-1.017-.214-.306-.417-.6-.62-.916a1.017 1.017 0 0 1 .132-1.282l.722-.722a1.025 1.025 0 0 1 1.353-.082c.255.204.509.397.743.59a6.097 6.097 0 0 1 1.017-.457c.03-.295.072-.6.112-.916a1.023 1.023 0 0 1 1.018-.895h1.027c.478 0 .896.335.997.803.092.295.153.59.204.885zm-1.659 7.356a1.374 1.374 0 1 0-.001-2.748 1.374 1.374 0 0 0 .001 2.748z"/>
        </g>
    </g>
</svg>
